<mxfile host="app.diagrams.net" modified="2022-07-14T08:37:05.019Z" agent="5.0 (X11; Linux x86_64) AppleWebKit/537.36 (KHTML, like Gecko) Chrome/103.0.0.0 Safari/537.36" etag="9e2bQf8IuannokmNqGM-" version="20.1.1" type="github">
  <diagram id="3yxgdzHpjUtoZ1YvnIb4" name="Page-1">
    <mxGraphModel dx="3706" dy="7592" grid="1" gridSize="10" guides="1" tooltips="1" connect="1" arrows="1" fold="1" page="1" pageScale="1" pageWidth="850" pageHeight="1100" math="0" shadow="0">
      <root>
        <mxCell id="0" />
        <mxCell id="1" parent="0" />
        <mxCell id="zf3hmA6HVg6shAKCX-4X-1" value="researcher" style="swimlane;fontStyle=1;align=center;verticalAlign=top;childLayout=stackLayout;horizontal=1;startSize=26;horizontalStack=0;resizeParent=1;resizeParentMax=0;resizeLast=0;collapsible=1;marginBottom=0;" parent="1" vertex="1">
          <mxGeometry x="1000" y="1050" width="220" height="188" as="geometry">
            <mxRectangle x="340" y="420" width="110" height="30" as="alternateBounds" />
          </mxGeometry>
        </mxCell>
        <mxCell id="zf3hmA6HVg6shAKCX-4X-2" value="- first name: string&#xa;- last name: string&#xa;- patronymic: string&#xa;- email: string&#xa;- respondents: " style="text;strokeColor=none;fillColor=none;align=left;verticalAlign=top;spacingLeft=4;spacingRight=4;overflow=hidden;rotatable=0;points=[[0,0.5],[1,0.5]];portConstraint=eastwest;" parent="zf3hmA6HVg6shAKCX-4X-1" vertex="1">
          <mxGeometry y="26" width="220" height="154" as="geometry" />
        </mxCell>
        <mxCell id="zf3hmA6HVg6shAKCX-4X-3" value="" style="line;strokeWidth=1;fillColor=none;align=left;verticalAlign=middle;spacingTop=-1;spacingLeft=3;spacingRight=3;rotatable=0;labelPosition=right;points=[];portConstraint=eastwest;" parent="zf3hmA6HVg6shAKCX-4X-1" vertex="1">
          <mxGeometry y="180" width="220" height="8" as="geometry" />
        </mxCell>
        <mxCell id="zf3hmA6HVg6shAKCX-4X-21" value="respondent" style="swimlane;fontStyle=1;align=center;verticalAlign=top;childLayout=stackLayout;horizontal=1;startSize=26;horizontalStack=0;resizeParent=1;resizeParentMax=0;resizeLast=0;collapsible=1;marginBottom=0;" parent="1" vertex="1">
          <mxGeometry x="600" y="1060" width="220" height="188" as="geometry">
            <mxRectangle x="340" y="420" width="110" height="30" as="alternateBounds" />
          </mxGeometry>
        </mxCell>
        <mxCell id="zf3hmA6HVg6shAKCX-4X-22" value="- first name: string&#xa;- last name: string&#xa;- patronymic: string&#xa;- email: string&#xa;- tag: string&#xa;- respondent&#39;s affiliation: researcher&#xa;- number of attempts: int" style="text;strokeColor=none;fillColor=none;align=left;verticalAlign=top;spacingLeft=4;spacingRight=4;overflow=hidden;rotatable=0;points=[[0,0.5],[1,0.5]];portConstraint=eastwest;" parent="zf3hmA6HVg6shAKCX-4X-21" vertex="1">
          <mxGeometry y="26" width="220" height="154" as="geometry" />
        </mxCell>
        <mxCell id="zf3hmA6HVg6shAKCX-4X-23" value="" style="line;strokeWidth=1;fillColor=none;align=left;verticalAlign=middle;spacingTop=-1;spacingLeft=3;spacingRight=3;rotatable=0;labelPosition=right;points=[];portConstraint=eastwest;" parent="zf3hmA6HVg6shAKCX-4X-21" vertex="1">
          <mxGeometry y="180" width="220" height="8" as="geometry" />
        </mxCell>
        <mxCell id="zf3hmA6HVg6shAKCX-4X-67" value="List" style="swimlane;fontStyle=0;childLayout=stackLayout;horizontal=1;startSize=26;horizontalStack=0;resizeParent=1;resizeParentMax=0;resizeLast=0;collapsible=1;marginBottom=0;align=center;fontSize=14;strokeColor=default;" parent="1" vertex="1">
          <mxGeometry x="1000" y="930" width="160" height="116" as="geometry" />
        </mxCell>
        <mxCell id="zf3hmA6HVg6shAKCX-4X-68" value="Item 1" style="text;strokeColor=none;fillColor=none;spacingLeft=4;spacingRight=4;overflow=hidden;rotatable=0;points=[[0,0.5],[1,0.5]];portConstraint=eastwest;fontSize=12;" parent="zf3hmA6HVg6shAKCX-4X-67" vertex="1">
          <mxGeometry y="26" width="160" height="30" as="geometry" />
        </mxCell>
        <mxCell id="zf3hmA6HVg6shAKCX-4X-69" value="Item 2" style="text;strokeColor=none;fillColor=none;spacingLeft=4;spacingRight=4;overflow=hidden;rotatable=0;points=[[0,0.5],[1,0.5]];portConstraint=eastwest;fontSize=12;" parent="zf3hmA6HVg6shAKCX-4X-67" vertex="1">
          <mxGeometry y="56" width="160" height="30" as="geometry" />
        </mxCell>
        <mxCell id="zf3hmA6HVg6shAKCX-4X-70" value="Item 3" style="text;strokeColor=none;fillColor=none;spacingLeft=4;spacingRight=4;overflow=hidden;rotatable=0;points=[[0,0.5],[1,0.5]];portConstraint=eastwest;fontSize=12;" parent="zf3hmA6HVg6shAKCX-4X-67" vertex="1">
          <mxGeometry y="86" width="160" height="30" as="geometry" />
        </mxCell>
        <mxCell id="zf3hmA6HVg6shAKCX-4X-92" value="&lt;span style=&quot;font-size: 200px;&quot;&gt;Database&lt;/span&gt;" style="text;html=1;align=center;verticalAlign=middle;resizable=0;points=[];autosize=1;strokeColor=none;fillColor=none;" parent="1" vertex="1">
          <mxGeometry x="410" y="-1670" width="880" height="250" as="geometry" />
        </mxCell>
        <mxCell id="zf3hmA6HVg6shAKCX-4X-103" value="" style="endArrow=classic;startArrow=classic;html=1;rounded=0;fontSize=20;exitX=0.149;exitY=-0.011;exitDx=0;exitDy=0;exitPerimeter=0;" parent="1" source="zf3hmA6HVg6shAKCX-4X-208" target="zf3hmA6HVg6shAKCX-4X-117" edge="1">
          <mxGeometry width="50" height="50" relative="1" as="geometry">
            <mxPoint x="-954.5121951219512" y="-670" as="sourcePoint" />
            <mxPoint x="-960" y="-874" as="targetPoint" />
          </mxGeometry>
        </mxCell>
        <mxCell id="zf3hmA6HVg6shAKCX-4X-117" value="" style="shape=table;startSize=30;container=1;collapsible=1;childLayout=tableLayout;fixedRows=1;rowLines=0;fontStyle=1;align=center;resizeLast=1;fontSize=20;strokeColor=default;" parent="1" vertex="1">
          <mxGeometry x="645" y="-840" width="340" height="150" as="geometry" />
        </mxCell>
        <mxCell id="zf3hmA6HVg6shAKCX-4X-118" value="" style="shape=tableRow;horizontal=0;startSize=0;swimlaneHead=0;swimlaneBody=0;fillColor=none;collapsible=0;dropTarget=0;points=[[0,0.5],[1,0.5]];portConstraint=eastwest;top=0;left=0;right=0;bottom=1;fontSize=20;strokeColor=default;" parent="zf3hmA6HVg6shAKCX-4X-117" vertex="1">
          <mxGeometry y="30" width="340" height="30" as="geometry" />
        </mxCell>
        <mxCell id="zf3hmA6HVg6shAKCX-4X-119" value="respondent_id&#xa;" style="shape=partialRectangle;connectable=0;fillColor=none;top=0;left=0;bottom=0;right=0;fontStyle=1;overflow=hidden;fontSize=20;strokeColor=default;" parent="zf3hmA6HVg6shAKCX-4X-118" vertex="1">
          <mxGeometry width="150" height="30" as="geometry">
            <mxRectangle width="150" height="30" as="alternateBounds" />
          </mxGeometry>
        </mxCell>
        <mxCell id="zf3hmA6HVg6shAKCX-4X-120" value="first name" style="shape=partialRectangle;connectable=0;fillColor=none;top=0;left=0;bottom=0;right=0;align=center;spacingLeft=6;fontStyle=1;overflow=hidden;fontSize=20;strokeColor=default;" parent="zf3hmA6HVg6shAKCX-4X-118" vertex="1">
          <mxGeometry x="150" width="190" height="30" as="geometry">
            <mxRectangle width="190" height="30" as="alternateBounds" />
          </mxGeometry>
        </mxCell>
        <mxCell id="zf3hmA6HVg6shAKCX-4X-121" value="" style="shape=tableRow;horizontal=0;startSize=0;swimlaneHead=0;swimlaneBody=0;fillColor=none;collapsible=0;dropTarget=0;points=[[0,0.5],[1,0.5]];portConstraint=eastwest;top=0;left=0;right=0;bottom=0;fontSize=20;strokeColor=default;" parent="zf3hmA6HVg6shAKCX-4X-117" vertex="1">
          <mxGeometry y="60" width="340" height="30" as="geometry" />
        </mxCell>
        <mxCell id="zf3hmA6HVg6shAKCX-4X-122" value="1" style="shape=partialRectangle;connectable=0;fillColor=none;top=0;left=0;bottom=0;right=0;editable=1;overflow=hidden;fontSize=20;strokeColor=default;" parent="zf3hmA6HVg6shAKCX-4X-121" vertex="1">
          <mxGeometry width="150" height="30" as="geometry">
            <mxRectangle width="150" height="30" as="alternateBounds" />
          </mxGeometry>
        </mxCell>
        <mxCell id="zf3hmA6HVg6shAKCX-4X-123" value="Max" style="shape=partialRectangle;connectable=0;fillColor=none;top=0;left=0;bottom=0;right=0;align=center;spacingLeft=6;overflow=hidden;fontSize=20;strokeColor=default;" parent="zf3hmA6HVg6shAKCX-4X-121" vertex="1">
          <mxGeometry x="150" width="190" height="30" as="geometry">
            <mxRectangle width="190" height="30" as="alternateBounds" />
          </mxGeometry>
        </mxCell>
        <mxCell id="zf3hmA6HVg6shAKCX-4X-124" value="" style="shape=tableRow;horizontal=0;startSize=0;swimlaneHead=0;swimlaneBody=0;fillColor=none;collapsible=0;dropTarget=0;points=[[0,0.5],[1,0.5]];portConstraint=eastwest;top=0;left=0;right=0;bottom=0;fontSize=20;strokeColor=default;" parent="zf3hmA6HVg6shAKCX-4X-117" vertex="1">
          <mxGeometry y="90" width="340" height="30" as="geometry" />
        </mxCell>
        <mxCell id="zf3hmA6HVg6shAKCX-4X-125" value="2" style="shape=partialRectangle;connectable=0;fillColor=none;top=0;left=0;bottom=0;right=0;editable=1;overflow=hidden;fontSize=20;strokeColor=default;" parent="zf3hmA6HVg6shAKCX-4X-124" vertex="1">
          <mxGeometry width="150" height="30" as="geometry">
            <mxRectangle width="150" height="30" as="alternateBounds" />
          </mxGeometry>
        </mxCell>
        <mxCell id="zf3hmA6HVg6shAKCX-4X-126" value="" style="shape=partialRectangle;connectable=0;fillColor=none;top=0;left=0;bottom=0;right=0;align=center;spacingLeft=6;overflow=hidden;fontSize=20;strokeColor=default;" parent="zf3hmA6HVg6shAKCX-4X-124" vertex="1">
          <mxGeometry x="150" width="190" height="30" as="geometry">
            <mxRectangle width="190" height="30" as="alternateBounds" />
          </mxGeometry>
        </mxCell>
        <mxCell id="zf3hmA6HVg6shAKCX-4X-127" value="" style="shape=tableRow;horizontal=0;startSize=0;swimlaneHead=0;swimlaneBody=0;fillColor=none;collapsible=0;dropTarget=0;points=[[0,0.5],[1,0.5]];portConstraint=eastwest;top=0;left=0;right=0;bottom=0;fontSize=20;strokeColor=default;" parent="zf3hmA6HVg6shAKCX-4X-117" vertex="1">
          <mxGeometry y="120" width="340" height="30" as="geometry" />
        </mxCell>
        <mxCell id="zf3hmA6HVg6shAKCX-4X-128" value="3" style="shape=partialRectangle;connectable=0;fillColor=none;top=0;left=0;bottom=0;right=0;editable=1;overflow=hidden;fontSize=20;strokeColor=default;" parent="zf3hmA6HVg6shAKCX-4X-127" vertex="1">
          <mxGeometry width="150" height="30" as="geometry">
            <mxRectangle width="150" height="30" as="alternateBounds" />
          </mxGeometry>
        </mxCell>
        <mxCell id="zf3hmA6HVg6shAKCX-4X-129" value="" style="shape=partialRectangle;connectable=0;fillColor=none;top=0;left=0;bottom=0;right=0;align=center;spacingLeft=6;overflow=hidden;fontSize=20;strokeColor=default;" parent="zf3hmA6HVg6shAKCX-4X-127" vertex="1">
          <mxGeometry x="150" width="190" height="30" as="geometry">
            <mxRectangle width="190" height="30" as="alternateBounds" />
          </mxGeometry>
        </mxCell>
        <mxCell id="zf3hmA6HVg6shAKCX-4X-132" value="" style="shape=table;startSize=30;container=1;collapsible=1;childLayout=tableLayout;fixedRows=1;rowLines=0;fontStyle=1;align=center;resizeLast=1;fontSize=20;strokeColor=default;" parent="1" vertex="1">
          <mxGeometry x="215" y="-1050" width="340" height="150" as="geometry" />
        </mxCell>
        <mxCell id="zf3hmA6HVg6shAKCX-4X-133" value="" style="shape=tableRow;horizontal=0;startSize=0;swimlaneHead=0;swimlaneBody=0;fillColor=none;collapsible=0;dropTarget=0;points=[[0,0.5],[1,0.5]];portConstraint=eastwest;top=0;left=0;right=0;bottom=1;fontSize=20;strokeColor=default;" parent="zf3hmA6HVg6shAKCX-4X-132" vertex="1">
          <mxGeometry y="30" width="340" height="30" as="geometry" />
        </mxCell>
        <mxCell id="zf3hmA6HVg6shAKCX-4X-134" value="respondent_id&#xa;" style="shape=partialRectangle;connectable=0;fillColor=none;top=0;left=0;bottom=0;right=0;fontStyle=1;overflow=hidden;fontSize=20;strokeColor=default;" parent="zf3hmA6HVg6shAKCX-4X-133" vertex="1">
          <mxGeometry width="150" height="30" as="geometry">
            <mxRectangle width="150" height="30" as="alternateBounds" />
          </mxGeometry>
        </mxCell>
        <mxCell id="zf3hmA6HVg6shAKCX-4X-135" value="test_id" style="shape=partialRectangle;connectable=0;fillColor=none;top=0;left=0;bottom=0;right=0;align=center;spacingLeft=6;fontStyle=1;overflow=hidden;fontSize=20;strokeColor=default;" parent="zf3hmA6HVg6shAKCX-4X-133" vertex="1">
          <mxGeometry x="150" width="190" height="30" as="geometry">
            <mxRectangle width="190" height="30" as="alternateBounds" />
          </mxGeometry>
        </mxCell>
        <mxCell id="zf3hmA6HVg6shAKCX-4X-136" value="" style="shape=tableRow;horizontal=0;startSize=0;swimlaneHead=0;swimlaneBody=0;fillColor=none;collapsible=0;dropTarget=0;points=[[0,0.5],[1,0.5]];portConstraint=eastwest;top=0;left=0;right=0;bottom=0;fontSize=20;strokeColor=default;" parent="zf3hmA6HVg6shAKCX-4X-132" vertex="1">
          <mxGeometry y="60" width="340" height="30" as="geometry" />
        </mxCell>
        <mxCell id="zf3hmA6HVg6shAKCX-4X-137" value="1" style="shape=partialRectangle;connectable=0;fillColor=none;top=0;left=0;bottom=0;right=0;editable=1;overflow=hidden;fontSize=20;strokeColor=default;" parent="zf3hmA6HVg6shAKCX-4X-136" vertex="1">
          <mxGeometry width="150" height="30" as="geometry">
            <mxRectangle width="150" height="30" as="alternateBounds" />
          </mxGeometry>
        </mxCell>
        <mxCell id="zf3hmA6HVg6shAKCX-4X-138" value="2" style="shape=partialRectangle;connectable=0;fillColor=none;top=0;left=0;bottom=0;right=0;align=center;spacingLeft=6;overflow=hidden;fontSize=20;strokeColor=default;" parent="zf3hmA6HVg6shAKCX-4X-136" vertex="1">
          <mxGeometry x="150" width="190" height="30" as="geometry">
            <mxRectangle width="190" height="30" as="alternateBounds" />
          </mxGeometry>
        </mxCell>
        <mxCell id="zf3hmA6HVg6shAKCX-4X-139" value="" style="shape=tableRow;horizontal=0;startSize=0;swimlaneHead=0;swimlaneBody=0;fillColor=none;collapsible=0;dropTarget=0;points=[[0,0.5],[1,0.5]];portConstraint=eastwest;top=0;left=0;right=0;bottom=0;fontSize=20;strokeColor=default;" parent="zf3hmA6HVg6shAKCX-4X-132" vertex="1">
          <mxGeometry y="90" width="340" height="30" as="geometry" />
        </mxCell>
        <mxCell id="zf3hmA6HVg6shAKCX-4X-140" value="2" style="shape=partialRectangle;connectable=0;fillColor=none;top=0;left=0;bottom=0;right=0;editable=1;overflow=hidden;fontSize=20;strokeColor=default;" parent="zf3hmA6HVg6shAKCX-4X-139" vertex="1">
          <mxGeometry width="150" height="30" as="geometry">
            <mxRectangle width="150" height="30" as="alternateBounds" />
          </mxGeometry>
        </mxCell>
        <mxCell id="zf3hmA6HVg6shAKCX-4X-141" value="2" style="shape=partialRectangle;connectable=0;fillColor=none;top=0;left=0;bottom=0;right=0;align=center;spacingLeft=6;overflow=hidden;fontSize=20;strokeColor=default;" parent="zf3hmA6HVg6shAKCX-4X-139" vertex="1">
          <mxGeometry x="150" width="190" height="30" as="geometry">
            <mxRectangle width="190" height="30" as="alternateBounds" />
          </mxGeometry>
        </mxCell>
        <mxCell id="zf3hmA6HVg6shAKCX-4X-142" value="" style="shape=tableRow;horizontal=0;startSize=0;swimlaneHead=0;swimlaneBody=0;fillColor=none;collapsible=0;dropTarget=0;points=[[0,0.5],[1,0.5]];portConstraint=eastwest;top=0;left=0;right=0;bottom=0;fontSize=20;strokeColor=default;" parent="zf3hmA6HVg6shAKCX-4X-132" vertex="1">
          <mxGeometry y="120" width="340" height="30" as="geometry" />
        </mxCell>
        <mxCell id="zf3hmA6HVg6shAKCX-4X-143" value="3" style="shape=partialRectangle;connectable=0;fillColor=none;top=0;left=0;bottom=0;right=0;editable=1;overflow=hidden;fontSize=20;strokeColor=default;" parent="zf3hmA6HVg6shAKCX-4X-142" vertex="1">
          <mxGeometry width="150" height="30" as="geometry">
            <mxRectangle width="150" height="30" as="alternateBounds" />
          </mxGeometry>
        </mxCell>
        <mxCell id="zf3hmA6HVg6shAKCX-4X-144" value="1" style="shape=partialRectangle;connectable=0;fillColor=none;top=0;left=0;bottom=0;right=0;align=center;spacingLeft=6;overflow=hidden;fontSize=20;strokeColor=default;" parent="zf3hmA6HVg6shAKCX-4X-142" vertex="1">
          <mxGeometry x="150" width="190" height="30" as="geometry">
            <mxRectangle width="190" height="30" as="alternateBounds" />
          </mxGeometry>
        </mxCell>
        <mxCell id="zf3hmA6HVg6shAKCX-4X-145" value="" style="endArrow=classic;startArrow=classic;html=1;rounded=0;fontSize=20;exitX=0.179;exitY=-0.1;exitDx=0;exitDy=0;exitPerimeter=0;entryX=0.091;entryY=-0.033;entryDx=0;entryDy=0;entryPerimeter=0;" parent="1" source="zf3hmA6HVg6shAKCX-4X-118" target="zf3hmA6HVg6shAKCX-4X-136" edge="1">
          <mxGeometry width="50" height="50" relative="1" as="geometry">
            <mxPoint x="-1200" y="-1120" as="sourcePoint" />
            <mxPoint x="-807.828695652174" y="-1100" as="targetPoint" />
          </mxGeometry>
        </mxCell>
        <mxCell id="zf3hmA6HVg6shAKCX-4X-146" value="" style="endArrow=classic;startArrow=classic;html=1;rounded=0;fontSize=20;entryX=1;entryY=0.5;entryDx=0;entryDy=0;exitX=0;exitY=0.5;exitDx=0;exitDy=0;" parent="1" source="zf3hmA6HVg6shAKCX-4X-148" target="zf3hmA6HVg6shAKCX-4X-133" edge="1">
          <mxGeometry width="50" height="50" relative="1" as="geometry">
            <mxPoint x="611.6666666666665" y="-1026" as="sourcePoint" />
            <mxPoint x="87.39130434782601" y="-873" as="targetPoint" />
          </mxGeometry>
        </mxCell>
        <mxCell id="zf3hmA6HVg6shAKCX-4X-147" value="" style="shape=table;startSize=30;container=1;collapsible=1;childLayout=tableLayout;fixedRows=1;rowLines=0;fontStyle=1;align=center;resizeLast=1;fontSize=20;strokeColor=default;" parent="1" vertex="1">
          <mxGeometry x="795" y="-1200" width="340" height="150" as="geometry" />
        </mxCell>
        <mxCell id="zf3hmA6HVg6shAKCX-4X-148" value="" style="shape=tableRow;horizontal=0;startSize=0;swimlaneHead=0;swimlaneBody=0;fillColor=none;collapsible=0;dropTarget=0;points=[[0,0.5],[1,0.5]];portConstraint=eastwest;top=0;left=0;right=0;bottom=1;fontSize=20;strokeColor=default;" parent="zf3hmA6HVg6shAKCX-4X-147" vertex="1">
          <mxGeometry y="30" width="340" height="30" as="geometry" />
        </mxCell>
        <mxCell id="zf3hmA6HVg6shAKCX-4X-149" value="test_id&#xa;" style="shape=partialRectangle;connectable=0;fillColor=none;top=0;left=0;bottom=0;right=0;fontStyle=1;overflow=hidden;fontSize=20;strokeColor=default;" parent="zf3hmA6HVg6shAKCX-4X-148" vertex="1">
          <mxGeometry width="150" height="30" as="geometry">
            <mxRectangle width="150" height="30" as="alternateBounds" />
          </mxGeometry>
        </mxCell>
        <mxCell id="zf3hmA6HVg6shAKCX-4X-150" value="name" style="shape=partialRectangle;connectable=0;fillColor=none;top=0;left=0;bottom=0;right=0;align=center;spacingLeft=6;fontStyle=1;overflow=hidden;fontSize=20;strokeColor=default;" parent="zf3hmA6HVg6shAKCX-4X-148" vertex="1">
          <mxGeometry x="150" width="190" height="30" as="geometry">
            <mxRectangle width="190" height="30" as="alternateBounds" />
          </mxGeometry>
        </mxCell>
        <mxCell id="zf3hmA6HVg6shAKCX-4X-151" value="" style="shape=tableRow;horizontal=0;startSize=0;swimlaneHead=0;swimlaneBody=0;fillColor=none;collapsible=0;dropTarget=0;points=[[0,0.5],[1,0.5]];portConstraint=eastwest;top=0;left=0;right=0;bottom=0;fontSize=20;strokeColor=default;" parent="zf3hmA6HVg6shAKCX-4X-147" vertex="1">
          <mxGeometry y="60" width="340" height="30" as="geometry" />
        </mxCell>
        <mxCell id="zf3hmA6HVg6shAKCX-4X-152" value="1" style="shape=partialRectangle;connectable=0;fillColor=none;top=0;left=0;bottom=0;right=0;editable=1;overflow=hidden;fontSize=20;strokeColor=default;" parent="zf3hmA6HVg6shAKCX-4X-151" vertex="1">
          <mxGeometry width="150" height="30" as="geometry">
            <mxRectangle width="150" height="30" as="alternateBounds" />
          </mxGeometry>
        </mxCell>
        <mxCell id="zf3hmA6HVg6shAKCX-4X-153" value="MMPI" style="shape=partialRectangle;connectable=0;fillColor=none;top=0;left=0;bottom=0;right=0;align=center;spacingLeft=6;overflow=hidden;fontSize=20;strokeColor=default;" parent="zf3hmA6HVg6shAKCX-4X-151" vertex="1">
          <mxGeometry x="150" width="190" height="30" as="geometry">
            <mxRectangle width="190" height="30" as="alternateBounds" />
          </mxGeometry>
        </mxCell>
        <mxCell id="zf3hmA6HVg6shAKCX-4X-154" value="" style="shape=tableRow;horizontal=0;startSize=0;swimlaneHead=0;swimlaneBody=0;fillColor=none;collapsible=0;dropTarget=0;points=[[0,0.5],[1,0.5]];portConstraint=eastwest;top=0;left=0;right=0;bottom=0;fontSize=20;strokeColor=default;" parent="zf3hmA6HVg6shAKCX-4X-147" vertex="1">
          <mxGeometry y="90" width="340" height="30" as="geometry" />
        </mxCell>
        <mxCell id="zf3hmA6HVg6shAKCX-4X-155" value="" style="shape=partialRectangle;connectable=0;fillColor=none;top=0;left=0;bottom=0;right=0;editable=1;overflow=hidden;fontSize=20;strokeColor=default;" parent="zf3hmA6HVg6shAKCX-4X-154" vertex="1">
          <mxGeometry width="150" height="30" as="geometry">
            <mxRectangle width="150" height="30" as="alternateBounds" />
          </mxGeometry>
        </mxCell>
        <mxCell id="zf3hmA6HVg6shAKCX-4X-156" value="" style="shape=partialRectangle;connectable=0;fillColor=none;top=0;left=0;bottom=0;right=0;align=center;spacingLeft=6;overflow=hidden;fontSize=20;strokeColor=default;" parent="zf3hmA6HVg6shAKCX-4X-154" vertex="1">
          <mxGeometry x="150" width="190" height="30" as="geometry">
            <mxRectangle width="190" height="30" as="alternateBounds" />
          </mxGeometry>
        </mxCell>
        <mxCell id="zf3hmA6HVg6shAKCX-4X-157" value="" style="shape=tableRow;horizontal=0;startSize=0;swimlaneHead=0;swimlaneBody=0;fillColor=none;collapsible=0;dropTarget=0;points=[[0,0.5],[1,0.5]];portConstraint=eastwest;top=0;left=0;right=0;bottom=0;fontSize=20;strokeColor=default;" parent="zf3hmA6HVg6shAKCX-4X-147" vertex="1">
          <mxGeometry y="120" width="340" height="30" as="geometry" />
        </mxCell>
        <mxCell id="zf3hmA6HVg6shAKCX-4X-158" value="" style="shape=partialRectangle;connectable=0;fillColor=none;top=0;left=0;bottom=0;right=0;editable=1;overflow=hidden;fontSize=20;strokeColor=default;" parent="zf3hmA6HVg6shAKCX-4X-157" vertex="1">
          <mxGeometry width="150" height="30" as="geometry">
            <mxRectangle width="150" height="30" as="alternateBounds" />
          </mxGeometry>
        </mxCell>
        <mxCell id="zf3hmA6HVg6shAKCX-4X-159" value="" style="shape=partialRectangle;connectable=0;fillColor=none;top=0;left=0;bottom=0;right=0;align=center;spacingLeft=6;overflow=hidden;fontSize=20;strokeColor=default;" parent="zf3hmA6HVg6shAKCX-4X-157" vertex="1">
          <mxGeometry x="150" width="190" height="30" as="geometry">
            <mxRectangle width="190" height="30" as="alternateBounds" />
          </mxGeometry>
        </mxCell>
        <mxCell id="zf3hmA6HVg6shAKCX-4X-160" value="" style="shape=table;startSize=30;container=1;collapsible=1;childLayout=tableLayout;fixedRows=1;rowLines=0;fontStyle=1;align=center;resizeLast=1;fontSize=20;strokeColor=default;" parent="1" vertex="1">
          <mxGeometry x="985" y="-840" width="340" height="150" as="geometry" />
        </mxCell>
        <mxCell id="zf3hmA6HVg6shAKCX-4X-161" value="" style="shape=tableRow;horizontal=0;startSize=0;swimlaneHead=0;swimlaneBody=0;fillColor=none;collapsible=0;dropTarget=0;points=[[0,0.5],[1,0.5]];portConstraint=eastwest;top=0;left=0;right=0;bottom=1;fontSize=20;strokeColor=default;" parent="zf3hmA6HVg6shAKCX-4X-160" vertex="1">
          <mxGeometry y="30" width="340" height="30" as="geometry" />
        </mxCell>
        <mxCell id="zf3hmA6HVg6shAKCX-4X-162" value="last name" style="shape=partialRectangle;connectable=0;fillColor=none;top=0;left=0;bottom=0;right=0;fontStyle=1;overflow=hidden;fontSize=20;strokeColor=default;" parent="zf3hmA6HVg6shAKCX-4X-161" vertex="1">
          <mxGeometry width="150" height="30" as="geometry">
            <mxRectangle width="150" height="30" as="alternateBounds" />
          </mxGeometry>
        </mxCell>
        <mxCell id="zf3hmA6HVg6shAKCX-4X-163" value="patronymic" style="shape=partialRectangle;connectable=0;fillColor=none;top=0;left=0;bottom=0;right=0;align=center;spacingLeft=6;fontStyle=1;overflow=hidden;fontSize=20;strokeColor=default;" parent="zf3hmA6HVg6shAKCX-4X-161" vertex="1">
          <mxGeometry x="150" width="190" height="30" as="geometry">
            <mxRectangle width="190" height="30" as="alternateBounds" />
          </mxGeometry>
        </mxCell>
        <mxCell id="zf3hmA6HVg6shAKCX-4X-164" value="" style="shape=tableRow;horizontal=0;startSize=0;swimlaneHead=0;swimlaneBody=0;fillColor=none;collapsible=0;dropTarget=0;points=[[0,0.5],[1,0.5]];portConstraint=eastwest;top=0;left=0;right=0;bottom=0;fontSize=20;strokeColor=default;" parent="zf3hmA6HVg6shAKCX-4X-160" vertex="1">
          <mxGeometry y="60" width="340" height="30" as="geometry" />
        </mxCell>
        <mxCell id="zf3hmA6HVg6shAKCX-4X-165" value="Gry" style="shape=partialRectangle;connectable=0;fillColor=none;top=0;left=0;bottom=0;right=0;editable=1;overflow=hidden;fontSize=20;strokeColor=default;" parent="zf3hmA6HVg6shAKCX-4X-164" vertex="1">
          <mxGeometry width="150" height="30" as="geometry">
            <mxRectangle width="150" height="30" as="alternateBounds" />
          </mxGeometry>
        </mxCell>
        <mxCell id="zf3hmA6HVg6shAKCX-4X-166" value="Anderson" style="shape=partialRectangle;connectable=0;fillColor=none;top=0;left=0;bottom=0;right=0;align=center;spacingLeft=6;overflow=hidden;fontSize=20;strokeColor=default;" parent="zf3hmA6HVg6shAKCX-4X-164" vertex="1">
          <mxGeometry x="150" width="190" height="30" as="geometry">
            <mxRectangle width="190" height="30" as="alternateBounds" />
          </mxGeometry>
        </mxCell>
        <mxCell id="zf3hmA6HVg6shAKCX-4X-167" value="" style="shape=tableRow;horizontal=0;startSize=0;swimlaneHead=0;swimlaneBody=0;fillColor=none;collapsible=0;dropTarget=0;points=[[0,0.5],[1,0.5]];portConstraint=eastwest;top=0;left=0;right=0;bottom=0;fontSize=20;strokeColor=default;" parent="zf3hmA6HVg6shAKCX-4X-160" vertex="1">
          <mxGeometry y="90" width="340" height="30" as="geometry" />
        </mxCell>
        <mxCell id="zf3hmA6HVg6shAKCX-4X-168" value="" style="shape=partialRectangle;connectable=0;fillColor=none;top=0;left=0;bottom=0;right=0;editable=1;overflow=hidden;fontSize=20;strokeColor=default;" parent="zf3hmA6HVg6shAKCX-4X-167" vertex="1">
          <mxGeometry width="150" height="30" as="geometry">
            <mxRectangle width="150" height="30" as="alternateBounds" />
          </mxGeometry>
        </mxCell>
        <mxCell id="zf3hmA6HVg6shAKCX-4X-169" value="" style="shape=partialRectangle;connectable=0;fillColor=none;top=0;left=0;bottom=0;right=0;align=center;spacingLeft=6;overflow=hidden;fontSize=20;strokeColor=default;" parent="zf3hmA6HVg6shAKCX-4X-167" vertex="1">
          <mxGeometry x="150" width="190" height="30" as="geometry">
            <mxRectangle width="190" height="30" as="alternateBounds" />
          </mxGeometry>
        </mxCell>
        <mxCell id="zf3hmA6HVg6shAKCX-4X-170" value="" style="shape=tableRow;horizontal=0;startSize=0;swimlaneHead=0;swimlaneBody=0;fillColor=none;collapsible=0;dropTarget=0;points=[[0,0.5],[1,0.5]];portConstraint=eastwest;top=0;left=0;right=0;bottom=0;fontSize=20;strokeColor=default;" parent="zf3hmA6HVg6shAKCX-4X-160" vertex="1">
          <mxGeometry y="120" width="340" height="30" as="geometry" />
        </mxCell>
        <mxCell id="zf3hmA6HVg6shAKCX-4X-171" value="" style="shape=partialRectangle;connectable=0;fillColor=none;top=0;left=0;bottom=0;right=0;editable=1;overflow=hidden;fontSize=20;strokeColor=default;" parent="zf3hmA6HVg6shAKCX-4X-170" vertex="1">
          <mxGeometry width="150" height="30" as="geometry">
            <mxRectangle width="150" height="30" as="alternateBounds" />
          </mxGeometry>
        </mxCell>
        <mxCell id="zf3hmA6HVg6shAKCX-4X-172" value="" style="shape=partialRectangle;connectable=0;fillColor=none;top=0;left=0;bottom=0;right=0;align=center;spacingLeft=6;overflow=hidden;fontSize=20;strokeColor=default;" parent="zf3hmA6HVg6shAKCX-4X-170" vertex="1">
          <mxGeometry x="150" width="190" height="30" as="geometry">
            <mxRectangle width="190" height="30" as="alternateBounds" />
          </mxGeometry>
        </mxCell>
        <mxCell id="zf3hmA6HVg6shAKCX-4X-173" value="" style="shape=table;startSize=30;container=1;collapsible=1;childLayout=tableLayout;fixedRows=1;rowLines=0;fontStyle=1;align=center;resizeLast=1;fontSize=20;strokeColor=default;" parent="1" vertex="1">
          <mxGeometry x="1325" y="-840" width="340" height="150" as="geometry" />
        </mxCell>
        <mxCell id="zf3hmA6HVg6shAKCX-4X-174" value="" style="shape=tableRow;horizontal=0;startSize=0;swimlaneHead=0;swimlaneBody=0;fillColor=none;collapsible=0;dropTarget=0;points=[[0,0.5],[1,0.5]];portConstraint=eastwest;top=0;left=0;right=0;bottom=1;fontSize=20;strokeColor=default;" parent="zf3hmA6HVg6shAKCX-4X-173" vertex="1">
          <mxGeometry y="30" width="340" height="30" as="geometry" />
        </mxCell>
        <mxCell id="zf3hmA6HVg6shAKCX-4X-175" value="email" style="shape=partialRectangle;connectable=0;fillColor=none;top=0;left=0;bottom=0;right=0;fontStyle=1;overflow=hidden;fontSize=20;strokeColor=default;" parent="zf3hmA6HVg6shAKCX-4X-174" vertex="1">
          <mxGeometry width="160" height="30" as="geometry">
            <mxRectangle width="160" height="30" as="alternateBounds" />
          </mxGeometry>
        </mxCell>
        <mxCell id="zf3hmA6HVg6shAKCX-4X-176" value="" style="shape=partialRectangle;connectable=0;fillColor=none;top=0;left=0;bottom=0;right=0;align=center;spacingLeft=6;fontStyle=1;overflow=hidden;fontSize=20;strokeColor=default;" parent="zf3hmA6HVg6shAKCX-4X-174" vertex="1">
          <mxGeometry x="160" width="180" height="30" as="geometry">
            <mxRectangle width="180" height="30" as="alternateBounds" />
          </mxGeometry>
        </mxCell>
        <mxCell id="zf3hmA6HVg6shAKCX-4X-177" value="" style="shape=tableRow;horizontal=0;startSize=0;swimlaneHead=0;swimlaneBody=0;fillColor=none;collapsible=0;dropTarget=0;points=[[0,0.5],[1,0.5]];portConstraint=eastwest;top=0;left=0;right=0;bottom=0;fontSize=20;strokeColor=default;" parent="zf3hmA6HVg6shAKCX-4X-173" vertex="1">
          <mxGeometry y="60" width="340" height="30" as="geometry" />
        </mxCell>
        <mxCell id="zf3hmA6HVg6shAKCX-4X-178" value="max@gmail.com" style="shape=partialRectangle;connectable=0;fillColor=none;top=0;left=0;bottom=0;right=0;editable=1;overflow=hidden;fontSize=20;strokeColor=default;" parent="zf3hmA6HVg6shAKCX-4X-177" vertex="1">
          <mxGeometry width="160" height="30" as="geometry">
            <mxRectangle width="160" height="30" as="alternateBounds" />
          </mxGeometry>
        </mxCell>
        <mxCell id="zf3hmA6HVg6shAKCX-4X-179" value="" style="shape=partialRectangle;connectable=0;fillColor=none;top=0;left=0;bottom=0;right=0;align=center;spacingLeft=6;overflow=hidden;fontSize=20;strokeColor=default;" parent="zf3hmA6HVg6shAKCX-4X-177" vertex="1">
          <mxGeometry x="160" width="180" height="30" as="geometry">
            <mxRectangle width="180" height="30" as="alternateBounds" />
          </mxGeometry>
        </mxCell>
        <mxCell id="zf3hmA6HVg6shAKCX-4X-180" value="" style="shape=tableRow;horizontal=0;startSize=0;swimlaneHead=0;swimlaneBody=0;fillColor=none;collapsible=0;dropTarget=0;points=[[0,0.5],[1,0.5]];portConstraint=eastwest;top=0;left=0;right=0;bottom=0;fontSize=20;strokeColor=default;" parent="zf3hmA6HVg6shAKCX-4X-173" vertex="1">
          <mxGeometry y="90" width="340" height="20" as="geometry" />
        </mxCell>
        <mxCell id="zf3hmA6HVg6shAKCX-4X-181" value="" style="shape=partialRectangle;connectable=0;fillColor=none;top=0;left=0;bottom=0;right=0;editable=1;overflow=hidden;fontSize=20;strokeColor=default;" parent="zf3hmA6HVg6shAKCX-4X-180" vertex="1">
          <mxGeometry width="160" height="20" as="geometry">
            <mxRectangle width="160" height="20" as="alternateBounds" />
          </mxGeometry>
        </mxCell>
        <mxCell id="zf3hmA6HVg6shAKCX-4X-182" value="" style="shape=partialRectangle;connectable=0;fillColor=none;top=0;left=0;bottom=0;right=0;align=center;spacingLeft=6;overflow=hidden;fontSize=20;strokeColor=default;" parent="zf3hmA6HVg6shAKCX-4X-180" vertex="1">
          <mxGeometry x="160" width="180" height="20" as="geometry">
            <mxRectangle width="180" height="20" as="alternateBounds" />
          </mxGeometry>
        </mxCell>
        <mxCell id="zf3hmA6HVg6shAKCX-4X-183" value="" style="shape=tableRow;horizontal=0;startSize=0;swimlaneHead=0;swimlaneBody=0;fillColor=none;collapsible=0;dropTarget=0;points=[[0,0.5],[1,0.5]];portConstraint=eastwest;top=0;left=0;right=0;bottom=0;fontSize=20;strokeColor=default;" parent="zf3hmA6HVg6shAKCX-4X-173" vertex="1">
          <mxGeometry y="110" width="340" height="40" as="geometry" />
        </mxCell>
        <mxCell id="zf3hmA6HVg6shAKCX-4X-184" value="" style="shape=partialRectangle;connectable=0;fillColor=none;top=0;left=0;bottom=0;right=0;editable=1;overflow=hidden;fontSize=20;strokeColor=default;" parent="zf3hmA6HVg6shAKCX-4X-183" vertex="1">
          <mxGeometry width="160" height="40" as="geometry">
            <mxRectangle width="160" height="40" as="alternateBounds" />
          </mxGeometry>
        </mxCell>
        <mxCell id="zf3hmA6HVg6shAKCX-4X-185" value="" style="shape=partialRectangle;connectable=0;fillColor=none;top=0;left=0;bottom=0;right=0;align=center;spacingLeft=6;overflow=hidden;fontSize=20;strokeColor=default;" parent="zf3hmA6HVg6shAKCX-4X-183" vertex="1">
          <mxGeometry x="160" width="180" height="40" as="geometry">
            <mxRectangle width="180" height="40" as="alternateBounds" />
          </mxGeometry>
        </mxCell>
        <mxCell id="zf3hmA6HVg6shAKCX-4X-192" value="" style="shape=tape;whiteSpace=wrap;html=1;fontSize=20;strokeColor=default;" parent="1" vertex="1">
          <mxGeometry x="-850" y="-30" width="4250" height="100" as="geometry" />
        </mxCell>
        <mxCell id="zf3hmA6HVg6shAKCX-4X-193" value="&lt;span style=&quot;font-size: 200px;&quot;&gt;Application&lt;/span&gt;" style="text;html=1;align=center;verticalAlign=middle;resizable=0;points=[];autosize=1;strokeColor=none;fillColor=none;" parent="1" vertex="1">
          <mxGeometry x="410" y="70" width="1000" height="250" as="geometry" />
        </mxCell>
        <mxCell id="zf3hmA6HVg6shAKCX-4X-195" value="" style="shape=table;startSize=30;container=1;collapsible=1;childLayout=tableLayout;fixedRows=1;rowLines=0;fontStyle=1;align=center;resizeLast=1;fontSize=20;strokeColor=default;" parent="1" vertex="1">
          <mxGeometry x="1665" y="-840" width="340" height="150" as="geometry" />
        </mxCell>
        <mxCell id="zf3hmA6HVg6shAKCX-4X-196" value="" style="shape=tableRow;horizontal=0;startSize=0;swimlaneHead=0;swimlaneBody=0;fillColor=none;collapsible=0;dropTarget=0;points=[[0,0.5],[1,0.5]];portConstraint=eastwest;top=0;left=0;right=0;bottom=1;fontSize=20;strokeColor=default;" parent="zf3hmA6HVg6shAKCX-4X-195" vertex="1">
          <mxGeometry y="30" width="340" height="30" as="geometry" />
        </mxCell>
        <mxCell id="zf3hmA6HVg6shAKCX-4X-197" value="number of attempts" style="shape=partialRectangle;connectable=0;fillColor=none;top=0;left=0;bottom=0;right=0;fontStyle=1;overflow=hidden;fontSize=20;strokeColor=default;" parent="zf3hmA6HVg6shAKCX-4X-196" vertex="1">
          <mxGeometry width="320" height="30" as="geometry">
            <mxRectangle width="320" height="30" as="alternateBounds" />
          </mxGeometry>
        </mxCell>
        <mxCell id="zf3hmA6HVg6shAKCX-4X-198" value="" style="shape=partialRectangle;connectable=0;fillColor=none;top=0;left=0;bottom=0;right=0;align=left;spacingLeft=6;fontStyle=5;overflow=hidden;fontSize=20;strokeColor=default;" parent="zf3hmA6HVg6shAKCX-4X-196" vertex="1">
          <mxGeometry x="320" width="20" height="30" as="geometry">
            <mxRectangle width="20" height="30" as="alternateBounds" />
          </mxGeometry>
        </mxCell>
        <mxCell id="zf3hmA6HVg6shAKCX-4X-199" value="" style="shape=tableRow;horizontal=0;startSize=0;swimlaneHead=0;swimlaneBody=0;fillColor=none;collapsible=0;dropTarget=0;points=[[0,0.5],[1,0.5]];portConstraint=eastwest;top=0;left=0;right=0;bottom=0;fontSize=20;strokeColor=default;" parent="zf3hmA6HVg6shAKCX-4X-195" vertex="1">
          <mxGeometry y="60" width="340" height="30" as="geometry" />
        </mxCell>
        <mxCell id="zf3hmA6HVg6shAKCX-4X-200" value="8" style="shape=partialRectangle;connectable=0;fillColor=none;top=0;left=0;bottom=0;right=0;editable=1;overflow=hidden;fontSize=20;strokeColor=default;" parent="zf3hmA6HVg6shAKCX-4X-199" vertex="1">
          <mxGeometry width="320" height="30" as="geometry">
            <mxRectangle width="320" height="30" as="alternateBounds" />
          </mxGeometry>
        </mxCell>
        <mxCell id="zf3hmA6HVg6shAKCX-4X-201" value="" style="shape=partialRectangle;connectable=0;fillColor=none;top=0;left=0;bottom=0;right=0;align=left;spacingLeft=6;overflow=hidden;fontSize=20;strokeColor=default;" parent="zf3hmA6HVg6shAKCX-4X-199" vertex="1">
          <mxGeometry x="320" width="20" height="30" as="geometry">
            <mxRectangle width="20" height="30" as="alternateBounds" />
          </mxGeometry>
        </mxCell>
        <mxCell id="zf3hmA6HVg6shAKCX-4X-202" value="" style="shape=tableRow;horizontal=0;startSize=0;swimlaneHead=0;swimlaneBody=0;fillColor=none;collapsible=0;dropTarget=0;points=[[0,0.5],[1,0.5]];portConstraint=eastwest;top=0;left=0;right=0;bottom=0;fontSize=20;strokeColor=default;" parent="zf3hmA6HVg6shAKCX-4X-195" vertex="1">
          <mxGeometry y="90" width="340" height="20" as="geometry" />
        </mxCell>
        <mxCell id="zf3hmA6HVg6shAKCX-4X-203" value="" style="shape=partialRectangle;connectable=0;fillColor=none;top=0;left=0;bottom=0;right=0;editable=1;overflow=hidden;fontSize=20;strokeColor=default;" parent="zf3hmA6HVg6shAKCX-4X-202" vertex="1">
          <mxGeometry width="320" height="20" as="geometry">
            <mxRectangle width="320" height="20" as="alternateBounds" />
          </mxGeometry>
        </mxCell>
        <mxCell id="zf3hmA6HVg6shAKCX-4X-204" value="" style="shape=partialRectangle;connectable=0;fillColor=none;top=0;left=0;bottom=0;right=0;align=left;spacingLeft=6;overflow=hidden;fontSize=20;strokeColor=default;" parent="zf3hmA6HVg6shAKCX-4X-202" vertex="1">
          <mxGeometry x="320" width="20" height="20" as="geometry">
            <mxRectangle width="20" height="20" as="alternateBounds" />
          </mxGeometry>
        </mxCell>
        <mxCell id="zf3hmA6HVg6shAKCX-4X-205" value="" style="shape=tableRow;horizontal=0;startSize=0;swimlaneHead=0;swimlaneBody=0;fillColor=none;collapsible=0;dropTarget=0;points=[[0,0.5],[1,0.5]];portConstraint=eastwest;top=0;left=0;right=0;bottom=0;fontSize=20;strokeColor=default;" parent="zf3hmA6HVg6shAKCX-4X-195" vertex="1">
          <mxGeometry y="110" width="340" height="40" as="geometry" />
        </mxCell>
        <mxCell id="zf3hmA6HVg6shAKCX-4X-206" value="" style="shape=partialRectangle;connectable=0;fillColor=none;top=0;left=0;bottom=0;right=0;editable=1;overflow=hidden;fontSize=20;strokeColor=default;" parent="zf3hmA6HVg6shAKCX-4X-205" vertex="1">
          <mxGeometry width="320" height="40" as="geometry">
            <mxRectangle width="320" height="40" as="alternateBounds" />
          </mxGeometry>
        </mxCell>
        <mxCell id="zf3hmA6HVg6shAKCX-4X-207" value="" style="shape=partialRectangle;connectable=0;fillColor=none;top=0;left=0;bottom=0;right=0;align=left;spacingLeft=6;overflow=hidden;fontSize=20;strokeColor=default;" parent="zf3hmA6HVg6shAKCX-4X-205" vertex="1">
          <mxGeometry x="320" width="20" height="40" as="geometry">
            <mxRectangle width="20" height="40" as="alternateBounds" />
          </mxGeometry>
        </mxCell>
        <mxCell id="zf3hmA6HVg6shAKCX-4X-208" value="" style="shape=table;startSize=30;container=1;collapsible=1;childLayout=tableLayout;fixedRows=1;rowLines=0;fontStyle=1;align=center;resizeLast=1;fontSize=20;strokeColor=default;" parent="1" vertex="1">
          <mxGeometry x="225" y="-580" width="320" height="150" as="geometry" />
        </mxCell>
        <mxCell id="zf3hmA6HVg6shAKCX-4X-209" value="" style="shape=tableRow;horizontal=0;startSize=0;swimlaneHead=0;swimlaneBody=0;fillColor=none;collapsible=0;dropTarget=0;points=[[0,0.5],[1,0.5]];portConstraint=eastwest;top=0;left=0;right=0;bottom=1;fontSize=20;strokeColor=default;" parent="zf3hmA6HVg6shAKCX-4X-208" vertex="1">
          <mxGeometry y="30" width="320" height="30" as="geometry" />
        </mxCell>
        <mxCell id="zf3hmA6HVg6shAKCX-4X-210" value="respondent_id&#xa;" style="shape=partialRectangle;connectable=0;fillColor=none;top=0;left=0;bottom=0;right=0;fontStyle=1;overflow=hidden;fontSize=20;strokeColor=default;" parent="zf3hmA6HVg6shAKCX-4X-209" vertex="1">
          <mxGeometry width="160" height="30" as="geometry">
            <mxRectangle width="160" height="30" as="alternateBounds" />
          </mxGeometry>
        </mxCell>
        <mxCell id="zf3hmA6HVg6shAKCX-4X-211" value="researcher_id" style="shape=partialRectangle;connectable=0;fillColor=none;top=0;left=0;bottom=0;right=0;align=left;spacingLeft=6;fontStyle=1;overflow=hidden;fontSize=20;strokeColor=default;" parent="zf3hmA6HVg6shAKCX-4X-209" vertex="1">
          <mxGeometry x="160" width="160" height="30" as="geometry">
            <mxRectangle width="160" height="30" as="alternateBounds" />
          </mxGeometry>
        </mxCell>
        <mxCell id="zf3hmA6HVg6shAKCX-4X-212" value="" style="shape=tableRow;horizontal=0;startSize=0;swimlaneHead=0;swimlaneBody=0;fillColor=none;collapsible=0;dropTarget=0;points=[[0,0.5],[1,0.5]];portConstraint=eastwest;top=0;left=0;right=0;bottom=0;fontSize=20;strokeColor=default;" parent="zf3hmA6HVg6shAKCX-4X-208" vertex="1">
          <mxGeometry y="60" width="320" height="30" as="geometry" />
        </mxCell>
        <mxCell id="zf3hmA6HVg6shAKCX-4X-213" value="1" style="shape=partialRectangle;connectable=0;fillColor=none;top=0;left=0;bottom=0;right=0;editable=1;overflow=hidden;fontSize=20;strokeColor=default;" parent="zf3hmA6HVg6shAKCX-4X-212" vertex="1">
          <mxGeometry width="160" height="30" as="geometry">
            <mxRectangle width="160" height="30" as="alternateBounds" />
          </mxGeometry>
        </mxCell>
        <mxCell id="zf3hmA6HVg6shAKCX-4X-214" value="1" style="shape=partialRectangle;connectable=0;fillColor=none;top=0;left=0;bottom=0;right=0;align=center;spacingLeft=6;overflow=hidden;fontSize=20;strokeColor=default;" parent="zf3hmA6HVg6shAKCX-4X-212" vertex="1">
          <mxGeometry x="160" width="160" height="30" as="geometry">
            <mxRectangle width="160" height="30" as="alternateBounds" />
          </mxGeometry>
        </mxCell>
        <mxCell id="zf3hmA6HVg6shAKCX-4X-215" value="" style="shape=tableRow;horizontal=0;startSize=0;swimlaneHead=0;swimlaneBody=0;fillColor=none;collapsible=0;dropTarget=0;points=[[0,0.5],[1,0.5]];portConstraint=eastwest;top=0;left=0;right=0;bottom=0;fontSize=20;strokeColor=default;" parent="zf3hmA6HVg6shAKCX-4X-208" vertex="1">
          <mxGeometry y="90" width="320" height="30" as="geometry" />
        </mxCell>
        <mxCell id="zf3hmA6HVg6shAKCX-4X-216" value="1" style="shape=partialRectangle;connectable=0;fillColor=none;top=0;left=0;bottom=0;right=0;editable=1;overflow=hidden;fontSize=20;strokeColor=default;" parent="zf3hmA6HVg6shAKCX-4X-215" vertex="1">
          <mxGeometry width="160" height="30" as="geometry">
            <mxRectangle width="160" height="30" as="alternateBounds" />
          </mxGeometry>
        </mxCell>
        <mxCell id="zf3hmA6HVg6shAKCX-4X-217" value="2" style="shape=partialRectangle;connectable=0;fillColor=none;top=0;left=0;bottom=0;right=0;align=center;spacingLeft=6;overflow=hidden;fontSize=20;strokeColor=default;" parent="zf3hmA6HVg6shAKCX-4X-215" vertex="1">
          <mxGeometry x="160" width="160" height="30" as="geometry">
            <mxRectangle width="160" height="30" as="alternateBounds" />
          </mxGeometry>
        </mxCell>
        <mxCell id="zf3hmA6HVg6shAKCX-4X-218" value="" style="shape=tableRow;horizontal=0;startSize=0;swimlaneHead=0;swimlaneBody=0;fillColor=none;collapsible=0;dropTarget=0;points=[[0,0.5],[1,0.5]];portConstraint=eastwest;top=0;left=0;right=0;bottom=0;fontSize=20;strokeColor=default;" parent="zf3hmA6HVg6shAKCX-4X-208" vertex="1">
          <mxGeometry y="120" width="320" height="30" as="geometry" />
        </mxCell>
        <mxCell id="zf3hmA6HVg6shAKCX-4X-219" value="2" style="shape=partialRectangle;connectable=0;fillColor=none;top=0;left=0;bottom=0;right=0;editable=1;overflow=hidden;fontSize=20;strokeColor=default;" parent="zf3hmA6HVg6shAKCX-4X-218" vertex="1">
          <mxGeometry width="160" height="30" as="geometry">
            <mxRectangle width="160" height="30" as="alternateBounds" />
          </mxGeometry>
        </mxCell>
        <mxCell id="zf3hmA6HVg6shAKCX-4X-220" value="1" style="shape=partialRectangle;connectable=0;fillColor=none;top=0;left=0;bottom=0;right=0;align=center;spacingLeft=6;overflow=hidden;fontSize=20;strokeColor=default;" parent="zf3hmA6HVg6shAKCX-4X-218" vertex="1">
          <mxGeometry x="160" width="160" height="30" as="geometry">
            <mxRectangle width="160" height="30" as="alternateBounds" />
          </mxGeometry>
        </mxCell>
        <mxCell id="zf3hmA6HVg6shAKCX-4X-233" value="1" style="swimlane;fontStyle=0;childLayout=stackLayout;horizontal=1;startSize=26;horizontalStack=0;resizeParent=1;resizeParentMax=0;resizeLast=0;collapsible=1;marginBottom=0;align=center;fontSize=20;strokeColor=default;" parent="1" vertex="1">
          <mxGeometry x="385" y="-314" width="160" height="116" as="geometry" />
        </mxCell>
        <mxCell id="zf3hmA6HVg6shAKCX-4X-234" value="2" style="text;strokeColor=none;fillColor=none;spacingLeft=4;spacingRight=4;overflow=hidden;rotatable=0;points=[[0,0.5],[1,0.5]];portConstraint=eastwest;fontSize=20;align=center;" parent="zf3hmA6HVg6shAKCX-4X-233" vertex="1">
          <mxGeometry y="26" width="160" height="30" as="geometry" />
        </mxCell>
        <mxCell id="zf3hmA6HVg6shAKCX-4X-235" value="3" style="text;strokeColor=none;fillColor=none;spacingLeft=4;spacingRight=4;overflow=hidden;rotatable=0;points=[[0,0.5],[1,0.5]];portConstraint=eastwest;fontSize=20;align=center;" parent="zf3hmA6HVg6shAKCX-4X-233" vertex="1">
          <mxGeometry y="56" width="160" height="30" as="geometry" />
        </mxCell>
        <mxCell id="zf3hmA6HVg6shAKCX-4X-236" value="1" style="text;strokeColor=none;fillColor=none;spacingLeft=4;spacingRight=4;overflow=hidden;rotatable=0;points=[[0,0.5],[1,0.5]];portConstraint=eastwest;fontSize=20;align=center;" parent="zf3hmA6HVg6shAKCX-4X-233" vertex="1">
          <mxGeometry y="86" width="160" height="30" as="geometry" />
        </mxCell>
        <mxCell id="zf3hmA6HVg6shAKCX-4X-242" value="1" style="swimlane;fontStyle=0;childLayout=stackLayout;horizontal=1;startSize=26;horizontalStack=0;resizeParent=1;resizeParentMax=0;resizeLast=0;collapsible=1;marginBottom=0;align=center;fontSize=20;strokeColor=default;" parent="1" vertex="1">
          <mxGeometry x="385" y="-430" width="160" height="116" as="geometry" />
        </mxCell>
        <mxCell id="zf3hmA6HVg6shAKCX-4X-243" value="1" style="text;strokeColor=none;fillColor=none;spacingLeft=4;spacingRight=4;overflow=hidden;rotatable=0;points=[[0,0.5],[1,0.5]];portConstraint=eastwest;fontSize=20;align=center;" parent="zf3hmA6HVg6shAKCX-4X-242" vertex="1">
          <mxGeometry y="26" width="160" height="30" as="geometry" />
        </mxCell>
        <mxCell id="zf3hmA6HVg6shAKCX-4X-244" value="2" style="text;strokeColor=none;fillColor=none;spacingLeft=4;spacingRight=4;overflow=hidden;rotatable=0;points=[[0,0.5],[1,0.5]];portConstraint=eastwest;fontSize=20;align=center;" parent="zf3hmA6HVg6shAKCX-4X-242" vertex="1">
          <mxGeometry y="56" width="160" height="30" as="geometry" />
        </mxCell>
        <mxCell id="zf3hmA6HVg6shAKCX-4X-245" value="3" style="text;strokeColor=none;fillColor=none;spacingLeft=4;spacingRight=4;overflow=hidden;rotatable=0;points=[[0,0.5],[1,0.5]];portConstraint=eastwest;fontSize=20;align=center;" parent="zf3hmA6HVg6shAKCX-4X-242" vertex="1">
          <mxGeometry y="86" width="160" height="30" as="geometry" />
        </mxCell>
        <mxCell id="zf3hmA6HVg6shAKCX-4X-246" value="3" style="swimlane;fontStyle=0;childLayout=stackLayout;horizontal=1;startSize=26;horizontalStack=0;resizeParent=1;resizeParentMax=0;resizeLast=0;collapsible=1;marginBottom=0;align=center;fontSize=20;strokeColor=default;" parent="1" vertex="1">
          <mxGeometry x="225" y="-430" width="160" height="116" as="geometry" />
        </mxCell>
        <mxCell id="zf3hmA6HVg6shAKCX-4X-247" value="3" style="text;strokeColor=none;fillColor=none;spacingLeft=4;spacingRight=4;overflow=hidden;rotatable=0;points=[[0,0.5],[1,0.5]];portConstraint=eastwest;fontSize=20;align=center;" parent="zf3hmA6HVg6shAKCX-4X-246" vertex="1">
          <mxGeometry y="26" width="160" height="30" as="geometry" />
        </mxCell>
        <mxCell id="zf3hmA6HVg6shAKCX-4X-248" value="3" style="text;strokeColor=none;fillColor=none;spacingLeft=4;spacingRight=4;overflow=hidden;rotatable=0;points=[[0,0.5],[1,0.5]];portConstraint=eastwest;fontSize=20;align=center;" parent="zf3hmA6HVg6shAKCX-4X-246" vertex="1">
          <mxGeometry y="56" width="160" height="30" as="geometry" />
        </mxCell>
        <mxCell id="zf3hmA6HVg6shAKCX-4X-249" value="4" style="text;strokeColor=none;fillColor=none;spacingLeft=4;spacingRight=4;overflow=hidden;rotatable=0;points=[[0,0.5],[1,0.5]];portConstraint=eastwest;fontSize=20;align=center;" parent="zf3hmA6HVg6shAKCX-4X-246" vertex="1">
          <mxGeometry y="86" width="160" height="30" as="geometry" />
        </mxCell>
        <mxCell id="zf3hmA6HVg6shAKCX-4X-254" value="1" style="swimlane;fontStyle=0;childLayout=stackLayout;horizontal=1;startSize=26;horizontalStack=0;resizeParent=1;resizeParentMax=0;resizeLast=0;collapsible=1;marginBottom=0;align=center;fontSize=20;strokeColor=default;" parent="1" vertex="1">
          <mxGeometry x="225" y="-314" width="160" height="116" as="geometry" />
        </mxCell>
        <mxCell id="zf3hmA6HVg6shAKCX-4X-255" value="1" style="text;strokeColor=none;fillColor=none;spacingLeft=4;spacingRight=4;overflow=hidden;rotatable=0;points=[[0,0.5],[1,0.5]];portConstraint=eastwest;fontSize=20;align=center;" parent="zf3hmA6HVg6shAKCX-4X-254" vertex="1">
          <mxGeometry y="26" width="160" height="30" as="geometry" />
        </mxCell>
        <mxCell id="zf3hmA6HVg6shAKCX-4X-256" value="2" style="text;strokeColor=none;fillColor=none;spacingLeft=4;spacingRight=4;overflow=hidden;rotatable=0;points=[[0,0.5],[1,0.5]];portConstraint=eastwest;fontSize=20;align=center;" parent="zf3hmA6HVg6shAKCX-4X-254" vertex="1">
          <mxGeometry y="56" width="160" height="30" as="geometry" />
        </mxCell>
        <mxCell id="zf3hmA6HVg6shAKCX-4X-257" value="3" style="text;strokeColor=none;fillColor=none;spacingLeft=4;spacingRight=4;overflow=hidden;rotatable=0;points=[[0,0.5],[1,0.5]];portConstraint=eastwest;fontSize=20;align=center;" parent="zf3hmA6HVg6shAKCX-4X-254" vertex="1">
          <mxGeometry y="86" width="160" height="30" as="geometry" />
        </mxCell>
        <mxCell id="zf3hmA6HVg6shAKCX-4X-305" value="" style="shape=table;startSize=30;container=1;collapsible=1;childLayout=tableLayout;fixedRows=1;rowLines=0;fontStyle=1;align=center;resizeLast=1;fontSize=20;strokeColor=default;" parent="1" vertex="1">
          <mxGeometry x="805" y="-530" width="340" height="150" as="geometry" />
        </mxCell>
        <mxCell id="zf3hmA6HVg6shAKCX-4X-306" value="" style="shape=tableRow;horizontal=0;startSize=0;swimlaneHead=0;swimlaneBody=0;fillColor=none;collapsible=0;dropTarget=0;points=[[0,0.5],[1,0.5]];portConstraint=eastwest;top=0;left=0;right=0;bottom=1;fontSize=20;strokeColor=default;" parent="zf3hmA6HVg6shAKCX-4X-305" vertex="1">
          <mxGeometry y="30" width="340" height="30" as="geometry" />
        </mxCell>
        <mxCell id="zf3hmA6HVg6shAKCX-4X-307" value="researcher_id" style="shape=partialRectangle;connectable=0;fillColor=none;top=0;left=0;bottom=0;right=0;fontStyle=1;overflow=hidden;fontSize=20;strokeColor=default;" parent="zf3hmA6HVg6shAKCX-4X-306" vertex="1">
          <mxGeometry width="150" height="30" as="geometry">
            <mxRectangle width="150" height="30" as="alternateBounds" />
          </mxGeometry>
        </mxCell>
        <mxCell id="zf3hmA6HVg6shAKCX-4X-308" value="first name" style="shape=partialRectangle;connectable=0;fillColor=none;top=0;left=0;bottom=0;right=0;align=center;spacingLeft=6;fontStyle=1;overflow=hidden;fontSize=20;strokeColor=default;" parent="zf3hmA6HVg6shAKCX-4X-306" vertex="1">
          <mxGeometry x="150" width="190" height="30" as="geometry">
            <mxRectangle width="190" height="30" as="alternateBounds" />
          </mxGeometry>
        </mxCell>
        <mxCell id="zf3hmA6HVg6shAKCX-4X-309" value="" style="shape=tableRow;horizontal=0;startSize=0;swimlaneHead=0;swimlaneBody=0;fillColor=none;collapsible=0;dropTarget=0;points=[[0,0.5],[1,0.5]];portConstraint=eastwest;top=0;left=0;right=0;bottom=0;fontSize=20;strokeColor=default;" parent="zf3hmA6HVg6shAKCX-4X-305" vertex="1">
          <mxGeometry y="60" width="340" height="30" as="geometry" />
        </mxCell>
        <mxCell id="zf3hmA6HVg6shAKCX-4X-310" value="1" style="shape=partialRectangle;connectable=0;fillColor=none;top=0;left=0;bottom=0;right=0;editable=1;overflow=hidden;fontSize=20;strokeColor=default;" parent="zf3hmA6HVg6shAKCX-4X-309" vertex="1">
          <mxGeometry width="150" height="30" as="geometry">
            <mxRectangle width="150" height="30" as="alternateBounds" />
          </mxGeometry>
        </mxCell>
        <mxCell id="zf3hmA6HVg6shAKCX-4X-311" value="ivan" style="shape=partialRectangle;connectable=0;fillColor=none;top=0;left=0;bottom=0;right=0;align=center;spacingLeft=6;overflow=hidden;fontSize=20;strokeColor=default;" parent="zf3hmA6HVg6shAKCX-4X-309" vertex="1">
          <mxGeometry x="150" width="190" height="30" as="geometry">
            <mxRectangle width="190" height="30" as="alternateBounds" />
          </mxGeometry>
        </mxCell>
        <mxCell id="zf3hmA6HVg6shAKCX-4X-312" value="" style="shape=tableRow;horizontal=0;startSize=0;swimlaneHead=0;swimlaneBody=0;fillColor=none;collapsible=0;dropTarget=0;points=[[0,0.5],[1,0.5]];portConstraint=eastwest;top=0;left=0;right=0;bottom=0;fontSize=20;strokeColor=default;" parent="zf3hmA6HVg6shAKCX-4X-305" vertex="1">
          <mxGeometry y="90" width="340" height="30" as="geometry" />
        </mxCell>
        <mxCell id="zf3hmA6HVg6shAKCX-4X-313" value="2" style="shape=partialRectangle;connectable=0;fillColor=none;top=0;left=0;bottom=0;right=0;editable=1;overflow=hidden;fontSize=20;strokeColor=default;" parent="zf3hmA6HVg6shAKCX-4X-312" vertex="1">
          <mxGeometry width="150" height="30" as="geometry">
            <mxRectangle width="150" height="30" as="alternateBounds" />
          </mxGeometry>
        </mxCell>
        <mxCell id="zf3hmA6HVg6shAKCX-4X-314" value="" style="shape=partialRectangle;connectable=0;fillColor=none;top=0;left=0;bottom=0;right=0;align=left;spacingLeft=6;overflow=hidden;fontSize=20;strokeColor=default;" parent="zf3hmA6HVg6shAKCX-4X-312" vertex="1">
          <mxGeometry x="150" width="190" height="30" as="geometry">
            <mxRectangle width="190" height="30" as="alternateBounds" />
          </mxGeometry>
        </mxCell>
        <mxCell id="zf3hmA6HVg6shAKCX-4X-315" value="" style="shape=tableRow;horizontal=0;startSize=0;swimlaneHead=0;swimlaneBody=0;fillColor=none;collapsible=0;dropTarget=0;points=[[0,0.5],[1,0.5]];portConstraint=eastwest;top=0;left=0;right=0;bottom=0;fontSize=20;strokeColor=default;" parent="zf3hmA6HVg6shAKCX-4X-305" vertex="1">
          <mxGeometry y="120" width="340" height="30" as="geometry" />
        </mxCell>
        <mxCell id="zf3hmA6HVg6shAKCX-4X-316" value="3" style="shape=partialRectangle;connectable=0;fillColor=none;top=0;left=0;bottom=0;right=0;editable=1;overflow=hidden;fontSize=20;strokeColor=default;" parent="zf3hmA6HVg6shAKCX-4X-315" vertex="1">
          <mxGeometry width="150" height="30" as="geometry">
            <mxRectangle width="150" height="30" as="alternateBounds" />
          </mxGeometry>
        </mxCell>
        <mxCell id="zf3hmA6HVg6shAKCX-4X-317" value="" style="shape=partialRectangle;connectable=0;fillColor=none;top=0;left=0;bottom=0;right=0;align=left;spacingLeft=6;overflow=hidden;fontSize=20;strokeColor=default;" parent="zf3hmA6HVg6shAKCX-4X-315" vertex="1">
          <mxGeometry x="150" width="190" height="30" as="geometry">
            <mxRectangle width="190" height="30" as="alternateBounds" />
          </mxGeometry>
        </mxCell>
        <mxCell id="zf3hmA6HVg6shAKCX-4X-318" value="" style="shape=table;startSize=30;container=1;collapsible=1;childLayout=tableLayout;fixedRows=1;rowLines=0;fontStyle=1;align=center;resizeLast=1;fontSize=20;strokeColor=default;" parent="1" vertex="1">
          <mxGeometry x="1145" y="-530" width="340" height="150" as="geometry" />
        </mxCell>
        <mxCell id="zf3hmA6HVg6shAKCX-4X-319" value="" style="shape=tableRow;horizontal=0;startSize=0;swimlaneHead=0;swimlaneBody=0;fillColor=none;collapsible=0;dropTarget=0;points=[[0,0.5],[1,0.5]];portConstraint=eastwest;top=0;left=0;right=0;bottom=1;fontSize=20;strokeColor=default;" parent="zf3hmA6HVg6shAKCX-4X-318" vertex="1">
          <mxGeometry y="30" width="340" height="30" as="geometry" />
        </mxCell>
        <mxCell id="zf3hmA6HVg6shAKCX-4X-320" value="last name" style="shape=partialRectangle;connectable=0;fillColor=none;top=0;left=0;bottom=0;right=0;fontStyle=1;overflow=hidden;fontSize=20;strokeColor=default;" parent="zf3hmA6HVg6shAKCX-4X-319" vertex="1">
          <mxGeometry width="150" height="30" as="geometry">
            <mxRectangle width="150" height="30" as="alternateBounds" />
          </mxGeometry>
        </mxCell>
        <mxCell id="zf3hmA6HVg6shAKCX-4X-321" value="patronymic" style="shape=partialRectangle;connectable=0;fillColor=none;top=0;left=0;bottom=0;right=0;align=center;spacingLeft=6;fontStyle=1;overflow=hidden;fontSize=20;strokeColor=default;" parent="zf3hmA6HVg6shAKCX-4X-319" vertex="1">
          <mxGeometry x="150" width="190" height="30" as="geometry">
            <mxRectangle width="190" height="30" as="alternateBounds" />
          </mxGeometry>
        </mxCell>
        <mxCell id="zf3hmA6HVg6shAKCX-4X-322" value="" style="shape=tableRow;horizontal=0;startSize=0;swimlaneHead=0;swimlaneBody=0;fillColor=none;collapsible=0;dropTarget=0;points=[[0,0.5],[1,0.5]];portConstraint=eastwest;top=0;left=0;right=0;bottom=0;fontSize=20;strokeColor=default;" parent="zf3hmA6HVg6shAKCX-4X-318" vertex="1">
          <mxGeometry y="60" width="340" height="30" as="geometry" />
        </mxCell>
        <mxCell id="zf3hmA6HVg6shAKCX-4X-323" value="ivanov" style="shape=partialRectangle;connectable=0;fillColor=none;top=0;left=0;bottom=0;right=0;editable=1;overflow=hidden;fontSize=20;strokeColor=default;" parent="zf3hmA6HVg6shAKCX-4X-322" vertex="1">
          <mxGeometry width="150" height="30" as="geometry">
            <mxRectangle width="150" height="30" as="alternateBounds" />
          </mxGeometry>
        </mxCell>
        <mxCell id="zf3hmA6HVg6shAKCX-4X-324" value="ivanovich" style="shape=partialRectangle;connectable=0;fillColor=none;top=0;left=0;bottom=0;right=0;align=center;spacingLeft=6;overflow=hidden;fontSize=20;strokeColor=default;" parent="zf3hmA6HVg6shAKCX-4X-322" vertex="1">
          <mxGeometry x="150" width="190" height="30" as="geometry">
            <mxRectangle width="190" height="30" as="alternateBounds" />
          </mxGeometry>
        </mxCell>
        <mxCell id="zf3hmA6HVg6shAKCX-4X-325" value="" style="shape=tableRow;horizontal=0;startSize=0;swimlaneHead=0;swimlaneBody=0;fillColor=none;collapsible=0;dropTarget=0;points=[[0,0.5],[1,0.5]];portConstraint=eastwest;top=0;left=0;right=0;bottom=0;fontSize=20;strokeColor=default;" parent="zf3hmA6HVg6shAKCX-4X-318" vertex="1">
          <mxGeometry y="90" width="340" height="30" as="geometry" />
        </mxCell>
        <mxCell id="zf3hmA6HVg6shAKCX-4X-326" value="" style="shape=partialRectangle;connectable=0;fillColor=none;top=0;left=0;bottom=0;right=0;editable=1;overflow=hidden;fontSize=20;strokeColor=default;" parent="zf3hmA6HVg6shAKCX-4X-325" vertex="1">
          <mxGeometry width="150" height="30" as="geometry">
            <mxRectangle width="150" height="30" as="alternateBounds" />
          </mxGeometry>
        </mxCell>
        <mxCell id="zf3hmA6HVg6shAKCX-4X-327" value="" style="shape=partialRectangle;connectable=0;fillColor=none;top=0;left=0;bottom=0;right=0;align=center;spacingLeft=6;overflow=hidden;fontSize=20;strokeColor=default;" parent="zf3hmA6HVg6shAKCX-4X-325" vertex="1">
          <mxGeometry x="150" width="190" height="30" as="geometry">
            <mxRectangle width="190" height="30" as="alternateBounds" />
          </mxGeometry>
        </mxCell>
        <mxCell id="zf3hmA6HVg6shAKCX-4X-328" value="" style="shape=tableRow;horizontal=0;startSize=0;swimlaneHead=0;swimlaneBody=0;fillColor=none;collapsible=0;dropTarget=0;points=[[0,0.5],[1,0.5]];portConstraint=eastwest;top=0;left=0;right=0;bottom=0;fontSize=20;strokeColor=default;" parent="zf3hmA6HVg6shAKCX-4X-318" vertex="1">
          <mxGeometry y="120" width="340" height="30" as="geometry" />
        </mxCell>
        <mxCell id="zf3hmA6HVg6shAKCX-4X-329" value="" style="shape=partialRectangle;connectable=0;fillColor=none;top=0;left=0;bottom=0;right=0;editable=1;overflow=hidden;fontSize=20;strokeColor=default;" parent="zf3hmA6HVg6shAKCX-4X-328" vertex="1">
          <mxGeometry width="150" height="30" as="geometry">
            <mxRectangle width="150" height="30" as="alternateBounds" />
          </mxGeometry>
        </mxCell>
        <mxCell id="zf3hmA6HVg6shAKCX-4X-330" value="" style="shape=partialRectangle;connectable=0;fillColor=none;top=0;left=0;bottom=0;right=0;align=center;spacingLeft=6;overflow=hidden;fontSize=20;strokeColor=default;" parent="zf3hmA6HVg6shAKCX-4X-328" vertex="1">
          <mxGeometry x="150" width="190" height="30" as="geometry">
            <mxRectangle width="190" height="30" as="alternateBounds" />
          </mxGeometry>
        </mxCell>
        <mxCell id="zf3hmA6HVg6shAKCX-4X-331" value="" style="shape=table;startSize=30;container=1;collapsible=1;childLayout=tableLayout;fixedRows=1;rowLines=0;fontStyle=1;align=center;resizeLast=1;fontSize=20;strokeColor=default;" parent="1" vertex="1">
          <mxGeometry x="1485" y="-530" width="340" height="150" as="geometry" />
        </mxCell>
        <mxCell id="zf3hmA6HVg6shAKCX-4X-332" value="" style="shape=tableRow;horizontal=0;startSize=0;swimlaneHead=0;swimlaneBody=0;fillColor=none;collapsible=0;dropTarget=0;points=[[0,0.5],[1,0.5]];portConstraint=eastwest;top=0;left=0;right=0;bottom=1;fontSize=20;strokeColor=default;" parent="zf3hmA6HVg6shAKCX-4X-331" vertex="1">
          <mxGeometry y="30" width="340" height="30" as="geometry" />
        </mxCell>
        <mxCell id="zf3hmA6HVg6shAKCX-4X-333" value="email" style="shape=partialRectangle;connectable=0;fillColor=none;top=0;left=0;bottom=0;right=0;fontStyle=1;overflow=hidden;fontSize=20;strokeColor=default;" parent="zf3hmA6HVg6shAKCX-4X-332" vertex="1">
          <mxGeometry width="320" height="30" as="geometry">
            <mxRectangle width="320" height="30" as="alternateBounds" />
          </mxGeometry>
        </mxCell>
        <mxCell id="zf3hmA6HVg6shAKCX-4X-334" value="" style="shape=partialRectangle;connectable=0;fillColor=none;top=0;left=0;bottom=0;right=0;align=left;spacingLeft=6;fontStyle=5;overflow=hidden;fontSize=20;strokeColor=default;" parent="zf3hmA6HVg6shAKCX-4X-332" vertex="1">
          <mxGeometry x="320" width="20" height="30" as="geometry">
            <mxRectangle width="20" height="30" as="alternateBounds" />
          </mxGeometry>
        </mxCell>
        <mxCell id="zf3hmA6HVg6shAKCX-4X-335" value="" style="shape=tableRow;horizontal=0;startSize=0;swimlaneHead=0;swimlaneBody=0;fillColor=none;collapsible=0;dropTarget=0;points=[[0,0.5],[1,0.5]];portConstraint=eastwest;top=0;left=0;right=0;bottom=0;fontSize=20;strokeColor=default;" parent="zf3hmA6HVg6shAKCX-4X-331" vertex="1">
          <mxGeometry y="60" width="340" height="30" as="geometry" />
        </mxCell>
        <mxCell id="zf3hmA6HVg6shAKCX-4X-336" value="ivan@gmail.com" style="shape=partialRectangle;connectable=0;fillColor=none;top=0;left=0;bottom=0;right=0;editable=1;overflow=hidden;fontSize=20;strokeColor=default;" parent="zf3hmA6HVg6shAKCX-4X-335" vertex="1">
          <mxGeometry width="320" height="30" as="geometry">
            <mxRectangle width="320" height="30" as="alternateBounds" />
          </mxGeometry>
        </mxCell>
        <mxCell id="zf3hmA6HVg6shAKCX-4X-337" value="" style="shape=partialRectangle;connectable=0;fillColor=none;top=0;left=0;bottom=0;right=0;align=left;spacingLeft=6;overflow=hidden;fontSize=20;strokeColor=default;" parent="zf3hmA6HVg6shAKCX-4X-335" vertex="1">
          <mxGeometry x="320" width="20" height="30" as="geometry">
            <mxRectangle width="20" height="30" as="alternateBounds" />
          </mxGeometry>
        </mxCell>
        <mxCell id="zf3hmA6HVg6shAKCX-4X-338" value="" style="shape=tableRow;horizontal=0;startSize=0;swimlaneHead=0;swimlaneBody=0;fillColor=none;collapsible=0;dropTarget=0;points=[[0,0.5],[1,0.5]];portConstraint=eastwest;top=0;left=0;right=0;bottom=0;fontSize=20;strokeColor=default;" parent="zf3hmA6HVg6shAKCX-4X-331" vertex="1">
          <mxGeometry y="90" width="340" height="20" as="geometry" />
        </mxCell>
        <mxCell id="zf3hmA6HVg6shAKCX-4X-339" value="" style="shape=partialRectangle;connectable=0;fillColor=none;top=0;left=0;bottom=0;right=0;editable=1;overflow=hidden;fontSize=20;strokeColor=default;" parent="zf3hmA6HVg6shAKCX-4X-338" vertex="1">
          <mxGeometry width="320" height="20" as="geometry">
            <mxRectangle width="320" height="20" as="alternateBounds" />
          </mxGeometry>
        </mxCell>
        <mxCell id="zf3hmA6HVg6shAKCX-4X-340" value="" style="shape=partialRectangle;connectable=0;fillColor=none;top=0;left=0;bottom=0;right=0;align=left;spacingLeft=6;overflow=hidden;fontSize=20;strokeColor=default;" parent="zf3hmA6HVg6shAKCX-4X-338" vertex="1">
          <mxGeometry x="320" width="20" height="20" as="geometry">
            <mxRectangle width="20" height="20" as="alternateBounds" />
          </mxGeometry>
        </mxCell>
        <mxCell id="zf3hmA6HVg6shAKCX-4X-341" value="" style="shape=tableRow;horizontal=0;startSize=0;swimlaneHead=0;swimlaneBody=0;fillColor=none;collapsible=0;dropTarget=0;points=[[0,0.5],[1,0.5]];portConstraint=eastwest;top=0;left=0;right=0;bottom=0;fontSize=20;strokeColor=default;" parent="zf3hmA6HVg6shAKCX-4X-331" vertex="1">
          <mxGeometry y="110" width="340" height="40" as="geometry" />
        </mxCell>
        <mxCell id="zf3hmA6HVg6shAKCX-4X-342" value="" style="shape=partialRectangle;connectable=0;fillColor=none;top=0;left=0;bottom=0;right=0;editable=1;overflow=hidden;fontSize=20;strokeColor=default;" parent="zf3hmA6HVg6shAKCX-4X-341" vertex="1">
          <mxGeometry width="320" height="40" as="geometry">
            <mxRectangle width="320" height="40" as="alternateBounds" />
          </mxGeometry>
        </mxCell>
        <mxCell id="zf3hmA6HVg6shAKCX-4X-343" value="" style="shape=partialRectangle;connectable=0;fillColor=none;top=0;left=0;bottom=0;right=0;align=left;spacingLeft=6;overflow=hidden;fontSize=20;strokeColor=default;" parent="zf3hmA6HVg6shAKCX-4X-341" vertex="1">
          <mxGeometry x="320" width="20" height="40" as="geometry">
            <mxRectangle width="20" height="40" as="alternateBounds" />
          </mxGeometry>
        </mxCell>
        <mxCell id="zf3hmA6HVg6shAKCX-4X-358" value="&lt;span style=&quot;font-size: 40px;&quot;&gt;respondents&lt;/span&gt;" style="text;html=1;align=center;verticalAlign=middle;resizable=0;points=[];autosize=1;strokeColor=none;fillColor=none;fontSize=16;" parent="1" vertex="1">
          <mxGeometry x="1165" y="-890" width="240" height="60" as="geometry" />
        </mxCell>
        <mxCell id="zf3hmA6HVg6shAKCX-4X-359" value="&lt;span style=&quot;text-align: left;&quot;&gt;&lt;font style=&quot;font-size: 40px;&quot;&gt;researchers&lt;/font&gt;&lt;/span&gt;" style="text;html=1;align=center;verticalAlign=middle;resizable=0;points=[];autosize=1;strokeColor=none;fillColor=none;fontSize=16;fontStyle=0" parent="1" vertex="1">
          <mxGeometry x="1175" y="-610" width="230" height="60" as="geometry" />
        </mxCell>
        <mxCell id="zf3hmA6HVg6shAKCX-4X-360" value="Tests" style="text;html=1;align=center;verticalAlign=middle;resizable=0;points=[];autosize=1;strokeColor=none;fillColor=none;fontSize=40;" parent="1" vertex="1">
          <mxGeometry x="1200" y="-1260" width="120" height="60" as="geometry" />
        </mxCell>
        <mxCell id="zf3hmA6HVg6shAKCX-4X-361" value="" style="shape=table;startSize=30;container=1;collapsible=1;childLayout=tableLayout;fixedRows=1;rowLines=0;fontStyle=1;align=center;resizeLast=1;fontSize=20;strokeColor=default;" parent="1" vertex="1">
          <mxGeometry x="1135" y="-1200" width="340" height="150" as="geometry" />
        </mxCell>
        <mxCell id="zf3hmA6HVg6shAKCX-4X-362" value="" style="shape=tableRow;horizontal=0;startSize=0;swimlaneHead=0;swimlaneBody=0;fillColor=none;collapsible=0;dropTarget=0;points=[[0,0.5],[1,0.5]];portConstraint=eastwest;top=0;left=0;right=0;bottom=1;fontSize=20;strokeColor=default;" parent="zf3hmA6HVg6shAKCX-4X-361" vertex="1">
          <mxGeometry y="30" width="340" height="30" as="geometry" />
        </mxCell>
        <mxCell id="zf3hmA6HVg6shAKCX-4X-363" value="description" style="shape=partialRectangle;connectable=0;fillColor=none;top=0;left=0;bottom=0;right=0;fontStyle=1;overflow=hidden;fontSize=20;strokeColor=default;" parent="zf3hmA6HVg6shAKCX-4X-362" vertex="1">
          <mxGeometry width="150" height="30" as="geometry">
            <mxRectangle width="150" height="30" as="alternateBounds" />
          </mxGeometry>
        </mxCell>
        <mxCell id="zf3hmA6HVg6shAKCX-4X-364" value="status" style="shape=partialRectangle;connectable=0;fillColor=none;top=0;left=0;bottom=0;right=0;align=center;spacingLeft=6;fontStyle=1;overflow=hidden;fontSize=20;strokeColor=default;" parent="zf3hmA6HVg6shAKCX-4X-362" vertex="1">
          <mxGeometry x="150" width="190" height="30" as="geometry">
            <mxRectangle width="190" height="30" as="alternateBounds" />
          </mxGeometry>
        </mxCell>
        <mxCell id="zf3hmA6HVg6shAKCX-4X-365" value="" style="shape=tableRow;horizontal=0;startSize=0;swimlaneHead=0;swimlaneBody=0;fillColor=none;collapsible=0;dropTarget=0;points=[[0,0.5],[1,0.5]];portConstraint=eastwest;top=0;left=0;right=0;bottom=0;fontSize=20;strokeColor=default;" parent="zf3hmA6HVg6shAKCX-4X-361" vertex="1">
          <mxGeometry y="60" width="340" height="30" as="geometry" />
        </mxCell>
        <mxCell id="zf3hmA6HVg6shAKCX-4X-366" value="the best test" style="shape=partialRectangle;connectable=0;fillColor=none;top=0;left=0;bottom=0;right=0;editable=1;overflow=hidden;fontSize=20;strokeColor=default;" parent="zf3hmA6HVg6shAKCX-4X-365" vertex="1">
          <mxGeometry width="150" height="30" as="geometry">
            <mxRectangle width="150" height="30" as="alternateBounds" />
          </mxGeometry>
        </mxCell>
        <mxCell id="zf3hmA6HVg6shAKCX-4X-367" value=" not started" style="shape=partialRectangle;connectable=0;fillColor=none;top=0;left=0;bottom=0;right=0;align=center;spacingLeft=6;overflow=hidden;fontSize=20;strokeColor=default;" parent="zf3hmA6HVg6shAKCX-4X-365" vertex="1">
          <mxGeometry x="150" width="190" height="30" as="geometry">
            <mxRectangle width="190" height="30" as="alternateBounds" />
          </mxGeometry>
        </mxCell>
        <mxCell id="zf3hmA6HVg6shAKCX-4X-368" value="" style="shape=tableRow;horizontal=0;startSize=0;swimlaneHead=0;swimlaneBody=0;fillColor=none;collapsible=0;dropTarget=0;points=[[0,0.5],[1,0.5]];portConstraint=eastwest;top=0;left=0;right=0;bottom=0;fontSize=20;strokeColor=default;" parent="zf3hmA6HVg6shAKCX-4X-361" vertex="1">
          <mxGeometry y="90" width="340" height="30" as="geometry" />
        </mxCell>
        <mxCell id="zf3hmA6HVg6shAKCX-4X-369" value="" style="shape=partialRectangle;connectable=0;fillColor=none;top=0;left=0;bottom=0;right=0;editable=1;overflow=hidden;fontSize=20;strokeColor=default;" parent="zf3hmA6HVg6shAKCX-4X-368" vertex="1">
          <mxGeometry width="150" height="30" as="geometry">
            <mxRectangle width="150" height="30" as="alternateBounds" />
          </mxGeometry>
        </mxCell>
        <mxCell id="zf3hmA6HVg6shAKCX-4X-370" value="" style="shape=partialRectangle;connectable=0;fillColor=none;top=0;left=0;bottom=0;right=0;align=left;spacingLeft=6;overflow=hidden;fontSize=20;strokeColor=default;" parent="zf3hmA6HVg6shAKCX-4X-368" vertex="1">
          <mxGeometry x="150" width="190" height="30" as="geometry">
            <mxRectangle width="190" height="30" as="alternateBounds" />
          </mxGeometry>
        </mxCell>
        <mxCell id="zf3hmA6HVg6shAKCX-4X-371" value="" style="shape=tableRow;horizontal=0;startSize=0;swimlaneHead=0;swimlaneBody=0;fillColor=none;collapsible=0;dropTarget=0;points=[[0,0.5],[1,0.5]];portConstraint=eastwest;top=0;left=0;right=0;bottom=0;fontSize=20;strokeColor=default;" parent="zf3hmA6HVg6shAKCX-4X-361" vertex="1">
          <mxGeometry y="120" width="340" height="30" as="geometry" />
        </mxCell>
        <mxCell id="zf3hmA6HVg6shAKCX-4X-372" value="" style="shape=partialRectangle;connectable=0;fillColor=none;top=0;left=0;bottom=0;right=0;editable=1;overflow=hidden;fontSize=20;strokeColor=default;" parent="zf3hmA6HVg6shAKCX-4X-371" vertex="1">
          <mxGeometry width="150" height="30" as="geometry">
            <mxRectangle width="150" height="30" as="alternateBounds" />
          </mxGeometry>
        </mxCell>
        <mxCell id="zf3hmA6HVg6shAKCX-4X-373" value="" style="shape=partialRectangle;connectable=0;fillColor=none;top=0;left=0;bottom=0;right=0;align=left;spacingLeft=6;overflow=hidden;fontSize=20;strokeColor=default;" parent="zf3hmA6HVg6shAKCX-4X-371" vertex="1">
          <mxGeometry x="150" width="190" height="30" as="geometry">
            <mxRectangle width="190" height="30" as="alternateBounds" />
          </mxGeometry>
        </mxCell>
        <mxCell id="zf3hmA6HVg6shAKCX-4X-374" value="" style="shape=table;startSize=30;container=1;collapsible=1;childLayout=tableLayout;fixedRows=1;rowLines=0;fontStyle=1;align=center;resizeLast=1;fontSize=20;strokeColor=default;" parent="1" vertex="1">
          <mxGeometry x="1475" y="-1200" width="540" height="150" as="geometry" />
        </mxCell>
        <mxCell id="zf3hmA6HVg6shAKCX-4X-375" value="" style="shape=tableRow;horizontal=0;startSize=0;swimlaneHead=0;swimlaneBody=0;fillColor=none;collapsible=0;dropTarget=0;points=[[0,0.5],[1,0.5]];portConstraint=eastwest;top=0;left=0;right=0;bottom=1;fontSize=20;strokeColor=default;" parent="zf3hmA6HVg6shAKCX-4X-374" vertex="1">
          <mxGeometry y="30" width="540" height="30" as="geometry" />
        </mxCell>
        <mxCell id="zf3hmA6HVg6shAKCX-4X-376" value="date of appointment" style="shape=partialRectangle;connectable=0;fillColor=none;top=0;left=0;bottom=0;right=0;fontStyle=1;overflow=hidden;fontSize=20;strokeColor=default;" parent="zf3hmA6HVg6shAKCX-4X-375" vertex="1">
          <mxGeometry width="280" height="30" as="geometry">
            <mxRectangle width="280" height="30" as="alternateBounds" />
          </mxGeometry>
        </mxCell>
        <mxCell id="zf3hmA6HVg6shAKCX-4X-377" value="opening date" style="shape=partialRectangle;connectable=0;fillColor=none;top=0;left=0;bottom=0;right=0;align=center;spacingLeft=6;fontStyle=1;overflow=hidden;fontSize=20;strokeColor=default;" parent="zf3hmA6HVg6shAKCX-4X-375" vertex="1">
          <mxGeometry x="280" width="260" height="30" as="geometry">
            <mxRectangle width="260" height="30" as="alternateBounds" />
          </mxGeometry>
        </mxCell>
        <mxCell id="zf3hmA6HVg6shAKCX-4X-378" value="" style="shape=tableRow;horizontal=0;startSize=0;swimlaneHead=0;swimlaneBody=0;fillColor=none;collapsible=0;dropTarget=0;points=[[0,0.5],[1,0.5]];portConstraint=eastwest;top=0;left=0;right=0;bottom=0;fontSize=20;strokeColor=default;" parent="zf3hmA6HVg6shAKCX-4X-374" vertex="1">
          <mxGeometry y="60" width="540" height="30" as="geometry" />
        </mxCell>
        <mxCell id="zf3hmA6HVg6shAKCX-4X-379" value="20.11.22" style="shape=partialRectangle;connectable=0;fillColor=none;top=0;left=0;bottom=0;right=0;editable=1;overflow=hidden;fontSize=20;strokeColor=default;" parent="zf3hmA6HVg6shAKCX-4X-378" vertex="1">
          <mxGeometry width="280" height="30" as="geometry">
            <mxRectangle width="280" height="30" as="alternateBounds" />
          </mxGeometry>
        </mxCell>
        <mxCell id="zf3hmA6HVg6shAKCX-4X-380" value="25.11.22" style="shape=partialRectangle;connectable=0;fillColor=none;top=0;left=0;bottom=0;right=0;align=center;spacingLeft=6;overflow=hidden;fontSize=20;strokeColor=default;" parent="zf3hmA6HVg6shAKCX-4X-378" vertex="1">
          <mxGeometry x="280" width="260" height="30" as="geometry">
            <mxRectangle width="260" height="30" as="alternateBounds" />
          </mxGeometry>
        </mxCell>
        <mxCell id="zf3hmA6HVg6shAKCX-4X-381" value="" style="shape=tableRow;horizontal=0;startSize=0;swimlaneHead=0;swimlaneBody=0;fillColor=none;collapsible=0;dropTarget=0;points=[[0,0.5],[1,0.5]];portConstraint=eastwest;top=0;left=0;right=0;bottom=0;fontSize=20;strokeColor=default;" parent="zf3hmA6HVg6shAKCX-4X-374" vertex="1">
          <mxGeometry y="90" width="540" height="30" as="geometry" />
        </mxCell>
        <mxCell id="zf3hmA6HVg6shAKCX-4X-382" value="" style="shape=partialRectangle;connectable=0;fillColor=none;top=0;left=0;bottom=0;right=0;editable=1;overflow=hidden;fontSize=20;strokeColor=default;" parent="zf3hmA6HVg6shAKCX-4X-381" vertex="1">
          <mxGeometry width="280" height="30" as="geometry">
            <mxRectangle width="280" height="30" as="alternateBounds" />
          </mxGeometry>
        </mxCell>
        <mxCell id="zf3hmA6HVg6shAKCX-4X-383" value="" style="shape=partialRectangle;connectable=0;fillColor=none;top=0;left=0;bottom=0;right=0;align=center;spacingLeft=6;overflow=hidden;fontSize=20;strokeColor=default;" parent="zf3hmA6HVg6shAKCX-4X-381" vertex="1">
          <mxGeometry x="280" width="260" height="30" as="geometry">
            <mxRectangle width="260" height="30" as="alternateBounds" />
          </mxGeometry>
        </mxCell>
        <mxCell id="zf3hmA6HVg6shAKCX-4X-384" value="" style="shape=tableRow;horizontal=0;startSize=0;swimlaneHead=0;swimlaneBody=0;fillColor=none;collapsible=0;dropTarget=0;points=[[0,0.5],[1,0.5]];portConstraint=eastwest;top=0;left=0;right=0;bottom=0;fontSize=20;strokeColor=default;" parent="zf3hmA6HVg6shAKCX-4X-374" vertex="1">
          <mxGeometry y="120" width="540" height="30" as="geometry" />
        </mxCell>
        <mxCell id="zf3hmA6HVg6shAKCX-4X-385" value="" style="shape=partialRectangle;connectable=0;fillColor=none;top=0;left=0;bottom=0;right=0;editable=1;overflow=hidden;fontSize=20;strokeColor=default;" parent="zf3hmA6HVg6shAKCX-4X-384" vertex="1">
          <mxGeometry width="280" height="30" as="geometry">
            <mxRectangle width="280" height="30" as="alternateBounds" />
          </mxGeometry>
        </mxCell>
        <mxCell id="zf3hmA6HVg6shAKCX-4X-386" value="" style="shape=partialRectangle;connectable=0;fillColor=none;top=0;left=0;bottom=0;right=0;align=center;spacingLeft=6;overflow=hidden;fontSize=20;strokeColor=default;" parent="zf3hmA6HVg6shAKCX-4X-384" vertex="1">
          <mxGeometry x="280" width="260" height="30" as="geometry">
            <mxRectangle width="260" height="30" as="alternateBounds" />
          </mxGeometry>
        </mxCell>
        <mxCell id="zf3hmA6HVg6shAKCX-4X-388" value="" style="endArrow=classic;startArrow=classic;html=1;rounded=0;fontSize=20;" parent="1" source="zf3hmA6HVg6shAKCX-4X-305" target="zf3hmA6HVg6shAKCX-4X-208" edge="1">
          <mxGeometry width="50" height="50" relative="1" as="geometry">
            <mxPoint x="-747.3200000000002" y="-671.6500000000005" as="sourcePoint" />
            <mxPoint x="-839.9679897567225" y="-870" as="targetPoint" />
          </mxGeometry>
        </mxCell>
        <mxCell id="zf3hmA6HVg6shAKCX-4X-392" value="status" style="swimlane;fontStyle=0;childLayout=stackLayout;horizontal=1;startSize=26;horizontalStack=0;resizeParent=1;resizeParentMax=0;resizeLast=0;collapsible=1;marginBottom=0;align=center;fontSize=14;strokeColor=default;" parent="1" vertex="1">
          <mxGeometry x="1610" y="870" width="160" height="116" as="geometry" />
        </mxCell>
        <mxCell id="zf3hmA6HVg6shAKCX-4X-393" value="- not started: " style="text;strokeColor=none;fillColor=none;spacingLeft=4;spacingRight=4;overflow=hidden;rotatable=0;points=[[0,0.5],[1,0.5]];portConstraint=eastwest;fontSize=12;" parent="zf3hmA6HVg6shAKCX-4X-392" vertex="1">
          <mxGeometry y="26" width="160" height="30" as="geometry" />
        </mxCell>
        <mxCell id="zf3hmA6HVg6shAKCX-4X-394" value="- running" style="text;strokeColor=none;fillColor=none;spacingLeft=4;spacingRight=4;overflow=hidden;rotatable=0;points=[[0,0.5],[1,0.5]];portConstraint=eastwest;fontSize=12;" parent="zf3hmA6HVg6shAKCX-4X-392" vertex="1">
          <mxGeometry y="56" width="160" height="30" as="geometry" />
        </mxCell>
        <mxCell id="zf3hmA6HVg6shAKCX-4X-395" value="- finished" style="text;strokeColor=none;fillColor=none;spacingLeft=4;spacingRight=4;overflow=hidden;rotatable=0;points=[[0,0.5],[1,0.5]];portConstraint=eastwest;fontSize=12;" parent="zf3hmA6HVg6shAKCX-4X-392" vertex="1">
          <mxGeometry y="86" width="160" height="30" as="geometry" />
        </mxCell>
        <mxCell id="zf3hmA6HVg6shAKCX-4X-411" value="" style="shape=table;startSize=30;container=1;collapsible=1;childLayout=tableLayout;fixedRows=1;rowLines=0;fontStyle=1;align=center;resizeLast=1;fontSize=20;strokeColor=default;" parent="1" vertex="1">
          <mxGeometry x="2015" y="-1200" width="340" height="150" as="geometry" />
        </mxCell>
        <mxCell id="zf3hmA6HVg6shAKCX-4X-412" value="" style="shape=tableRow;horizontal=0;startSize=0;swimlaneHead=0;swimlaneBody=0;fillColor=none;collapsible=0;dropTarget=0;points=[[0,0.5],[1,0.5]];portConstraint=eastwest;top=0;left=0;right=0;bottom=1;fontSize=20;strokeColor=default;" parent="zf3hmA6HVg6shAKCX-4X-411" vertex="1">
          <mxGeometry y="30" width="340" height="30" as="geometry" />
        </mxCell>
        <mxCell id="zf3hmA6HVg6shAKCX-4X-413" value="date of passage" style="shape=partialRectangle;connectable=0;fillColor=none;top=0;left=0;bottom=0;right=0;fontStyle=1;overflow=hidden;fontSize=20;strokeColor=default;" parent="zf3hmA6HVg6shAKCX-4X-412" vertex="1">
          <mxGeometry width="320" height="30" as="geometry">
            <mxRectangle width="320" height="30" as="alternateBounds" />
          </mxGeometry>
        </mxCell>
        <mxCell id="zf3hmA6HVg6shAKCX-4X-414" value="" style="shape=partialRectangle;connectable=0;fillColor=none;top=0;left=0;bottom=0;right=0;align=left;spacingLeft=6;fontStyle=5;overflow=hidden;fontSize=20;strokeColor=default;" parent="zf3hmA6HVg6shAKCX-4X-412" vertex="1">
          <mxGeometry x="320" width="20" height="30" as="geometry">
            <mxRectangle width="20" height="30" as="alternateBounds" />
          </mxGeometry>
        </mxCell>
        <mxCell id="zf3hmA6HVg6shAKCX-4X-415" value="" style="shape=tableRow;horizontal=0;startSize=0;swimlaneHead=0;swimlaneBody=0;fillColor=none;collapsible=0;dropTarget=0;points=[[0,0.5],[1,0.5]];portConstraint=eastwest;top=0;left=0;right=0;bottom=0;fontSize=20;strokeColor=default;" parent="zf3hmA6HVg6shAKCX-4X-411" vertex="1">
          <mxGeometry y="60" width="340" height="30" as="geometry" />
        </mxCell>
        <mxCell id="zf3hmA6HVg6shAKCX-4X-416" value="25.11.22" style="shape=partialRectangle;connectable=0;fillColor=none;top=0;left=0;bottom=0;right=0;editable=1;overflow=hidden;fontSize=20;strokeColor=default;" parent="zf3hmA6HVg6shAKCX-4X-415" vertex="1">
          <mxGeometry width="320" height="30" as="geometry">
            <mxRectangle width="320" height="30" as="alternateBounds" />
          </mxGeometry>
        </mxCell>
        <mxCell id="zf3hmA6HVg6shAKCX-4X-417" value="" style="shape=partialRectangle;connectable=0;fillColor=none;top=0;left=0;bottom=0;right=0;align=left;spacingLeft=6;overflow=hidden;fontSize=20;strokeColor=default;" parent="zf3hmA6HVg6shAKCX-4X-415" vertex="1">
          <mxGeometry x="320" width="20" height="30" as="geometry">
            <mxRectangle width="20" height="30" as="alternateBounds" />
          </mxGeometry>
        </mxCell>
        <mxCell id="zf3hmA6HVg6shAKCX-4X-418" value="" style="shape=tableRow;horizontal=0;startSize=0;swimlaneHead=0;swimlaneBody=0;fillColor=none;collapsible=0;dropTarget=0;points=[[0,0.5],[1,0.5]];portConstraint=eastwest;top=0;left=0;right=0;bottom=0;fontSize=20;strokeColor=default;" parent="zf3hmA6HVg6shAKCX-4X-411" vertex="1">
          <mxGeometry y="90" width="340" height="20" as="geometry" />
        </mxCell>
        <mxCell id="zf3hmA6HVg6shAKCX-4X-419" value="" style="shape=partialRectangle;connectable=0;fillColor=none;top=0;left=0;bottom=0;right=0;editable=1;overflow=hidden;fontSize=20;strokeColor=default;" parent="zf3hmA6HVg6shAKCX-4X-418" vertex="1">
          <mxGeometry width="320" height="20" as="geometry">
            <mxRectangle width="320" height="20" as="alternateBounds" />
          </mxGeometry>
        </mxCell>
        <mxCell id="zf3hmA6HVg6shAKCX-4X-420" value="" style="shape=partialRectangle;connectable=0;fillColor=none;top=0;left=0;bottom=0;right=0;align=left;spacingLeft=6;overflow=hidden;fontSize=20;strokeColor=default;" parent="zf3hmA6HVg6shAKCX-4X-418" vertex="1">
          <mxGeometry x="320" width="20" height="20" as="geometry">
            <mxRectangle width="20" height="20" as="alternateBounds" />
          </mxGeometry>
        </mxCell>
        <mxCell id="zf3hmA6HVg6shAKCX-4X-421" value="" style="shape=tableRow;horizontal=0;startSize=0;swimlaneHead=0;swimlaneBody=0;fillColor=none;collapsible=0;dropTarget=0;points=[[0,0.5],[1,0.5]];portConstraint=eastwest;top=0;left=0;right=0;bottom=0;fontSize=20;strokeColor=default;" parent="zf3hmA6HVg6shAKCX-4X-411" vertex="1">
          <mxGeometry y="110" width="340" height="40" as="geometry" />
        </mxCell>
        <mxCell id="zf3hmA6HVg6shAKCX-4X-422" value="" style="shape=partialRectangle;connectable=0;fillColor=none;top=0;left=0;bottom=0;right=0;editable=1;overflow=hidden;fontSize=20;strokeColor=default;" parent="zf3hmA6HVg6shAKCX-4X-421" vertex="1">
          <mxGeometry width="320" height="40" as="geometry">
            <mxRectangle width="320" height="40" as="alternateBounds" />
          </mxGeometry>
        </mxCell>
        <mxCell id="zf3hmA6HVg6shAKCX-4X-423" value="" style="shape=partialRectangle;connectable=0;fillColor=none;top=0;left=0;bottom=0;right=0;align=left;spacingLeft=6;overflow=hidden;fontSize=20;strokeColor=default;" parent="zf3hmA6HVg6shAKCX-4X-421" vertex="1">
          <mxGeometry x="320" width="20" height="40" as="geometry">
            <mxRectangle width="20" height="40" as="alternateBounds" />
          </mxGeometry>
        </mxCell>
        <mxCell id="q73aBfs1NUggTAyX3Rre-1" value="&lt;span style=&quot;font-size: 200px;&quot;&gt;Database v0.1&lt;/span&gt;" style="text;html=1;align=center;verticalAlign=middle;resizable=0;points=[];autosize=1;strokeColor=none;fillColor=none;" vertex="1" parent="1">
          <mxGeometry x="65" y="-4150" width="1310" height="250" as="geometry" />
        </mxCell>
        <mxCell id="q73aBfs1NUggTAyX3Rre-2" value="" style="endArrow=classic;startArrow=classic;html=1;rounded=0;fontSize=20;exitX=0.149;exitY=-0.011;exitDx=0;exitDy=0;exitPerimeter=0;" edge="1" parent="1" source="q73aBfs1NUggTAyX3Rre-83" target="q73aBfs1NUggTAyX3Rre-3">
          <mxGeometry width="50" height="50" relative="1" as="geometry">
            <mxPoint x="-1084.5121951219512" y="-3150" as="sourcePoint" />
            <mxPoint x="-1090" y="-3354" as="targetPoint" />
          </mxGeometry>
        </mxCell>
        <mxCell id="q73aBfs1NUggTAyX3Rre-3" value="" style="shape=table;startSize=30;container=1;collapsible=1;childLayout=tableLayout;fixedRows=1;rowLines=0;fontStyle=1;align=center;resizeLast=1;fontSize=20;strokeColor=default;" vertex="1" parent="1">
          <mxGeometry x="514" y="-3320" width="340" height="150" as="geometry" />
        </mxCell>
        <mxCell id="q73aBfs1NUggTAyX3Rre-4" value="" style="shape=tableRow;horizontal=0;startSize=0;swimlaneHead=0;swimlaneBody=0;fillColor=none;collapsible=0;dropTarget=0;points=[[0,0.5],[1,0.5]];portConstraint=eastwest;top=0;left=0;right=0;bottom=1;fontSize=20;strokeColor=default;" vertex="1" parent="q73aBfs1NUggTAyX3Rre-3">
          <mxGeometry y="30" width="340" height="30" as="geometry" />
        </mxCell>
        <mxCell id="q73aBfs1NUggTAyX3Rre-5" value="email" style="shape=partialRectangle;connectable=0;fillColor=none;top=0;left=0;bottom=0;right=0;fontStyle=1;overflow=hidden;fontSize=20;strokeColor=default;" vertex="1" parent="q73aBfs1NUggTAyX3Rre-4">
          <mxGeometry width="186" height="30" as="geometry">
            <mxRectangle width="186" height="30" as="alternateBounds" />
          </mxGeometry>
        </mxCell>
        <mxCell id="q73aBfs1NUggTAyX3Rre-6" value="first name" style="shape=partialRectangle;connectable=0;fillColor=none;top=0;left=0;bottom=0;right=0;align=center;spacingLeft=6;fontStyle=1;overflow=hidden;fontSize=20;strokeColor=default;" vertex="1" parent="q73aBfs1NUggTAyX3Rre-4">
          <mxGeometry x="186" width="154" height="30" as="geometry">
            <mxRectangle width="154" height="30" as="alternateBounds" />
          </mxGeometry>
        </mxCell>
        <mxCell id="q73aBfs1NUggTAyX3Rre-7" value="" style="shape=tableRow;horizontal=0;startSize=0;swimlaneHead=0;swimlaneBody=0;fillColor=none;collapsible=0;dropTarget=0;points=[[0,0.5],[1,0.5]];portConstraint=eastwest;top=0;left=0;right=0;bottom=0;fontSize=20;strokeColor=default;" vertex="1" parent="q73aBfs1NUggTAyX3Rre-3">
          <mxGeometry y="60" width="340" height="30" as="geometry" />
        </mxCell>
        <mxCell id="q73aBfs1NUggTAyX3Rre-8" value="max@gmail.com" style="shape=partialRectangle;connectable=0;fillColor=none;top=0;left=0;bottom=0;right=0;editable=1;overflow=hidden;fontSize=20;strokeColor=default;" vertex="1" parent="q73aBfs1NUggTAyX3Rre-7">
          <mxGeometry width="186" height="30" as="geometry">
            <mxRectangle width="186" height="30" as="alternateBounds" />
          </mxGeometry>
        </mxCell>
        <mxCell id="q73aBfs1NUggTAyX3Rre-9" value="Max" style="shape=partialRectangle;connectable=0;fillColor=none;top=0;left=0;bottom=0;right=0;align=center;spacingLeft=6;overflow=hidden;fontSize=20;strokeColor=default;" vertex="1" parent="q73aBfs1NUggTAyX3Rre-7">
          <mxGeometry x="186" width="154" height="30" as="geometry">
            <mxRectangle width="154" height="30" as="alternateBounds" />
          </mxGeometry>
        </mxCell>
        <mxCell id="q73aBfs1NUggTAyX3Rre-10" value="" style="shape=tableRow;horizontal=0;startSize=0;swimlaneHead=0;swimlaneBody=0;fillColor=none;collapsible=0;dropTarget=0;points=[[0,0.5],[1,0.5]];portConstraint=eastwest;top=0;left=0;right=0;bottom=0;fontSize=20;strokeColor=default;" vertex="1" parent="q73aBfs1NUggTAyX3Rre-3">
          <mxGeometry y="90" width="340" height="30" as="geometry" />
        </mxCell>
        <mxCell id="q73aBfs1NUggTAyX3Rre-11" value="goal23@gmail.com" style="shape=partialRectangle;connectable=0;fillColor=none;top=0;left=0;bottom=0;right=0;editable=1;overflow=hidden;fontSize=20;strokeColor=default;" vertex="1" parent="q73aBfs1NUggTAyX3Rre-10">
          <mxGeometry width="186" height="30" as="geometry">
            <mxRectangle width="186" height="30" as="alternateBounds" />
          </mxGeometry>
        </mxCell>
        <mxCell id="q73aBfs1NUggTAyX3Rre-12" value="" style="shape=partialRectangle;connectable=0;fillColor=none;top=0;left=0;bottom=0;right=0;align=center;spacingLeft=6;overflow=hidden;fontSize=20;strokeColor=default;" vertex="1" parent="q73aBfs1NUggTAyX3Rre-10">
          <mxGeometry x="186" width="154" height="30" as="geometry">
            <mxRectangle width="154" height="30" as="alternateBounds" />
          </mxGeometry>
        </mxCell>
        <mxCell id="q73aBfs1NUggTAyX3Rre-13" value="" style="shape=tableRow;horizontal=0;startSize=0;swimlaneHead=0;swimlaneBody=0;fillColor=none;collapsible=0;dropTarget=0;points=[[0,0.5],[1,0.5]];portConstraint=eastwest;top=0;left=0;right=0;bottom=0;fontSize=20;strokeColor=default;" vertex="1" parent="q73aBfs1NUggTAyX3Rre-3">
          <mxGeometry y="120" width="340" height="30" as="geometry" />
        </mxCell>
        <mxCell id="q73aBfs1NUggTAyX3Rre-14" value="lenovO@gmail.com" style="shape=partialRectangle;connectable=0;fillColor=none;top=0;left=0;bottom=0;right=0;editable=1;overflow=hidden;fontSize=20;strokeColor=default;" vertex="1" parent="q73aBfs1NUggTAyX3Rre-13">
          <mxGeometry width="186" height="30" as="geometry">
            <mxRectangle width="186" height="30" as="alternateBounds" />
          </mxGeometry>
        </mxCell>
        <mxCell id="q73aBfs1NUggTAyX3Rre-15" value="" style="shape=partialRectangle;connectable=0;fillColor=none;top=0;left=0;bottom=0;right=0;align=center;spacingLeft=6;overflow=hidden;fontSize=20;strokeColor=default;" vertex="1" parent="q73aBfs1NUggTAyX3Rre-13">
          <mxGeometry x="186" width="154" height="30" as="geometry">
            <mxRectangle width="154" height="30" as="alternateBounds" />
          </mxGeometry>
        </mxCell>
        <mxCell id="q73aBfs1NUggTAyX3Rre-16" value="" style="shape=table;startSize=30;container=1;collapsible=1;childLayout=tableLayout;fixedRows=1;rowLines=0;fontStyle=1;align=center;resizeLast=1;fontSize=20;strokeColor=default;" vertex="1" parent="1">
          <mxGeometry x="-50" y="-3600" width="465" height="280" as="geometry" />
        </mxCell>
        <mxCell id="q73aBfs1NUggTAyX3Rre-17" value="" style="shape=tableRow;horizontal=0;startSize=0;swimlaneHead=0;swimlaneBody=0;fillColor=none;collapsible=0;dropTarget=0;points=[[0,0.5],[1,0.5]];portConstraint=eastwest;top=0;left=0;right=0;bottom=1;fontSize=20;strokeColor=default;" vertex="1" parent="q73aBfs1NUggTAyX3Rre-16">
          <mxGeometry y="30" width="465" height="30" as="geometry" />
        </mxCell>
        <mxCell id="q73aBfs1NUggTAyX3Rre-18" value="respondent_email" style="shape=partialRectangle;connectable=0;fillColor=none;top=0;left=0;bottom=0;right=0;fontStyle=1;overflow=hidden;fontSize=20;strokeColor=default;" vertex="1" parent="q73aBfs1NUggTAyX3Rre-17">
          <mxGeometry width="220" height="30" as="geometry">
            <mxRectangle width="220" height="30" as="alternateBounds" />
          </mxGeometry>
        </mxCell>
        <mxCell id="q73aBfs1NUggTAyX3Rre-19" value="test_id" style="shape=partialRectangle;connectable=0;fillColor=none;top=0;left=0;bottom=0;right=0;align=center;spacingLeft=6;fontStyle=1;overflow=hidden;fontSize=20;strokeColor=default;" vertex="1" parent="q73aBfs1NUggTAyX3Rre-17">
          <mxGeometry x="220" width="245" height="30" as="geometry">
            <mxRectangle width="245" height="30" as="alternateBounds" />
          </mxGeometry>
        </mxCell>
        <mxCell id="q73aBfs1NUggTAyX3Rre-20" value="" style="shape=tableRow;horizontal=0;startSize=0;swimlaneHead=0;swimlaneBody=0;fillColor=none;collapsible=0;dropTarget=0;points=[[0,0.5],[1,0.5]];portConstraint=eastwest;top=0;left=0;right=0;bottom=0;fontSize=20;strokeColor=default;" vertex="1" parent="q73aBfs1NUggTAyX3Rre-16">
          <mxGeometry y="60" width="465" height="30" as="geometry" />
        </mxCell>
        <mxCell id="q73aBfs1NUggTAyX3Rre-21" value="max@gmail.com" style="shape=partialRectangle;connectable=0;fillColor=none;top=0;left=0;bottom=0;right=0;editable=1;overflow=hidden;fontSize=20;strokeColor=default;" vertex="1" parent="q73aBfs1NUggTAyX3Rre-20">
          <mxGeometry width="220" height="30" as="geometry">
            <mxRectangle width="220" height="30" as="alternateBounds" />
          </mxGeometry>
        </mxCell>
        <mxCell id="q73aBfs1NUggTAyX3Rre-22" value="2" style="shape=partialRectangle;connectable=0;fillColor=none;top=0;left=0;bottom=0;right=0;align=center;spacingLeft=6;overflow=hidden;fontSize=20;strokeColor=default;" vertex="1" parent="q73aBfs1NUggTAyX3Rre-20">
          <mxGeometry x="220" width="245" height="30" as="geometry">
            <mxRectangle width="245" height="30" as="alternateBounds" />
          </mxGeometry>
        </mxCell>
        <mxCell id="q73aBfs1NUggTAyX3Rre-23" value="" style="shape=tableRow;horizontal=0;startSize=0;swimlaneHead=0;swimlaneBody=0;fillColor=none;collapsible=0;dropTarget=0;points=[[0,0.5],[1,0.5]];portConstraint=eastwest;top=0;left=0;right=0;bottom=0;fontSize=20;strokeColor=default;" vertex="1" parent="q73aBfs1NUggTAyX3Rre-16">
          <mxGeometry y="90" width="465" height="100" as="geometry" />
        </mxCell>
        <mxCell id="q73aBfs1NUggTAyX3Rre-24" value="goal23@gmail.com" style="shape=partialRectangle;connectable=0;fillColor=none;top=0;left=0;bottom=0;right=0;editable=1;overflow=hidden;fontSize=20;strokeColor=default;" vertex="1" parent="q73aBfs1NUggTAyX3Rre-23">
          <mxGeometry width="220" height="100" as="geometry">
            <mxRectangle width="220" height="100" as="alternateBounds" />
          </mxGeometry>
        </mxCell>
        <mxCell id="q73aBfs1NUggTAyX3Rre-25" value="2" style="shape=partialRectangle;connectable=0;fillColor=none;top=0;left=0;bottom=0;right=0;align=center;spacingLeft=6;overflow=hidden;fontSize=20;strokeColor=default;" vertex="1" parent="q73aBfs1NUggTAyX3Rre-23">
          <mxGeometry x="220" width="245" height="100" as="geometry">
            <mxRectangle width="245" height="100" as="alternateBounds" />
          </mxGeometry>
        </mxCell>
        <mxCell id="q73aBfs1NUggTAyX3Rre-26" value="" style="shape=tableRow;horizontal=0;startSize=0;swimlaneHead=0;swimlaneBody=0;fillColor=none;collapsible=0;dropTarget=0;points=[[0,0.5],[1,0.5]];portConstraint=eastwest;top=0;left=0;right=0;bottom=0;fontSize=20;strokeColor=default;" vertex="1" parent="q73aBfs1NUggTAyX3Rre-16">
          <mxGeometry y="190" width="465" height="90" as="geometry" />
        </mxCell>
        <mxCell id="q73aBfs1NUggTAyX3Rre-27" value="lenovO@gmail.com" style="shape=partialRectangle;connectable=0;fillColor=none;top=0;left=0;bottom=0;right=0;editable=1;overflow=hidden;fontSize=20;strokeColor=default;" vertex="1" parent="q73aBfs1NUggTAyX3Rre-26">
          <mxGeometry width="220" height="90" as="geometry">
            <mxRectangle width="220" height="90" as="alternateBounds" />
          </mxGeometry>
        </mxCell>
        <mxCell id="q73aBfs1NUggTAyX3Rre-28" value="1" style="shape=partialRectangle;connectable=0;fillColor=none;top=0;left=0;bottom=0;right=0;align=center;spacingLeft=6;overflow=hidden;fontSize=20;strokeColor=default;" vertex="1" parent="q73aBfs1NUggTAyX3Rre-26">
          <mxGeometry x="220" width="245" height="90" as="geometry">
            <mxRectangle width="245" height="90" as="alternateBounds" />
          </mxGeometry>
        </mxCell>
        <mxCell id="q73aBfs1NUggTAyX3Rre-29" value="" style="endArrow=classic;startArrow=classic;html=1;rounded=0;fontSize=20;" edge="1" parent="1" source="q73aBfs1NUggTAyX3Rre-3" target="q73aBfs1NUggTAyX3Rre-16">
          <mxGeometry width="50" height="50" relative="1" as="geometry">
            <mxPoint x="-1330" y="-3600" as="sourcePoint" />
            <mxPoint x="-937.828695652174" y="-3580" as="targetPoint" />
          </mxGeometry>
        </mxCell>
        <mxCell id="q73aBfs1NUggTAyX3Rre-30" value="" style="endArrow=classic;startArrow=classic;html=1;rounded=0;fontSize=20;entryX=1;entryY=0.5;entryDx=0;entryDy=0;exitX=0;exitY=0.5;exitDx=0;exitDy=0;" edge="1" parent="1" source="q73aBfs1NUggTAyX3Rre-32" target="q73aBfs1NUggTAyX3Rre-17">
          <mxGeometry width="50" height="50" relative="1" as="geometry">
            <mxPoint x="481.6666666666665" y="-3506" as="sourcePoint" />
            <mxPoint x="-42.60869565217399" y="-3353" as="targetPoint" />
          </mxGeometry>
        </mxCell>
        <mxCell id="q73aBfs1NUggTAyX3Rre-31" value="" style="shape=table;startSize=30;container=1;collapsible=1;childLayout=tableLayout;fixedRows=1;rowLines=0;fontStyle=1;align=center;resizeLast=1;fontSize=20;strokeColor=default;" vertex="1" parent="1">
          <mxGeometry x="665" y="-3680" width="340" height="150" as="geometry" />
        </mxCell>
        <mxCell id="q73aBfs1NUggTAyX3Rre-32" value="" style="shape=tableRow;horizontal=0;startSize=0;swimlaneHead=0;swimlaneBody=0;fillColor=none;collapsible=0;dropTarget=0;points=[[0,0.5],[1,0.5]];portConstraint=eastwest;top=0;left=0;right=0;bottom=1;fontSize=20;strokeColor=default;" vertex="1" parent="q73aBfs1NUggTAyX3Rre-31">
          <mxGeometry y="30" width="340" height="30" as="geometry" />
        </mxCell>
        <mxCell id="q73aBfs1NUggTAyX3Rre-33" value="test_id&#xa;" style="shape=partialRectangle;connectable=0;fillColor=none;top=0;left=0;bottom=0;right=0;fontStyle=1;overflow=hidden;fontSize=20;strokeColor=default;" vertex="1" parent="q73aBfs1NUggTAyX3Rre-32">
          <mxGeometry width="150" height="30" as="geometry">
            <mxRectangle width="150" height="30" as="alternateBounds" />
          </mxGeometry>
        </mxCell>
        <mxCell id="q73aBfs1NUggTAyX3Rre-34" value="name" style="shape=partialRectangle;connectable=0;fillColor=none;top=0;left=0;bottom=0;right=0;align=center;spacingLeft=6;fontStyle=1;overflow=hidden;fontSize=20;strokeColor=default;" vertex="1" parent="q73aBfs1NUggTAyX3Rre-32">
          <mxGeometry x="150" width="190" height="30" as="geometry">
            <mxRectangle width="190" height="30" as="alternateBounds" />
          </mxGeometry>
        </mxCell>
        <mxCell id="q73aBfs1NUggTAyX3Rre-35" value="" style="shape=tableRow;horizontal=0;startSize=0;swimlaneHead=0;swimlaneBody=0;fillColor=none;collapsible=0;dropTarget=0;points=[[0,0.5],[1,0.5]];portConstraint=eastwest;top=0;left=0;right=0;bottom=0;fontSize=20;strokeColor=default;" vertex="1" parent="q73aBfs1NUggTAyX3Rre-31">
          <mxGeometry y="60" width="340" height="30" as="geometry" />
        </mxCell>
        <mxCell id="q73aBfs1NUggTAyX3Rre-36" value="1" style="shape=partialRectangle;connectable=0;fillColor=none;top=0;left=0;bottom=0;right=0;editable=1;overflow=hidden;fontSize=20;strokeColor=default;" vertex="1" parent="q73aBfs1NUggTAyX3Rre-35">
          <mxGeometry width="150" height="30" as="geometry">
            <mxRectangle width="150" height="30" as="alternateBounds" />
          </mxGeometry>
        </mxCell>
        <mxCell id="q73aBfs1NUggTAyX3Rre-37" value="MMPI" style="shape=partialRectangle;connectable=0;fillColor=none;top=0;left=0;bottom=0;right=0;align=center;spacingLeft=6;overflow=hidden;fontSize=20;strokeColor=default;" vertex="1" parent="q73aBfs1NUggTAyX3Rre-35">
          <mxGeometry x="150" width="190" height="30" as="geometry">
            <mxRectangle width="190" height="30" as="alternateBounds" />
          </mxGeometry>
        </mxCell>
        <mxCell id="q73aBfs1NUggTAyX3Rre-38" value="" style="shape=tableRow;horizontal=0;startSize=0;swimlaneHead=0;swimlaneBody=0;fillColor=none;collapsible=0;dropTarget=0;points=[[0,0.5],[1,0.5]];portConstraint=eastwest;top=0;left=0;right=0;bottom=0;fontSize=20;strokeColor=default;" vertex="1" parent="q73aBfs1NUggTAyX3Rre-31">
          <mxGeometry y="90" width="340" height="30" as="geometry" />
        </mxCell>
        <mxCell id="q73aBfs1NUggTAyX3Rre-39" value="2" style="shape=partialRectangle;connectable=0;fillColor=none;top=0;left=0;bottom=0;right=0;editable=1;overflow=hidden;fontSize=20;strokeColor=default;" vertex="1" parent="q73aBfs1NUggTAyX3Rre-38">
          <mxGeometry width="150" height="30" as="geometry">
            <mxRectangle width="150" height="30" as="alternateBounds" />
          </mxGeometry>
        </mxCell>
        <mxCell id="q73aBfs1NUggTAyX3Rre-40" value="MMPI" style="shape=partialRectangle;connectable=0;fillColor=none;top=0;left=0;bottom=0;right=0;align=center;spacingLeft=6;overflow=hidden;fontSize=20;strokeColor=default;" vertex="1" parent="q73aBfs1NUggTAyX3Rre-38">
          <mxGeometry x="150" width="190" height="30" as="geometry">
            <mxRectangle width="190" height="30" as="alternateBounds" />
          </mxGeometry>
        </mxCell>
        <mxCell id="q73aBfs1NUggTAyX3Rre-41" value="" style="shape=tableRow;horizontal=0;startSize=0;swimlaneHead=0;swimlaneBody=0;fillColor=none;collapsible=0;dropTarget=0;points=[[0,0.5],[1,0.5]];portConstraint=eastwest;top=0;left=0;right=0;bottom=0;fontSize=20;strokeColor=default;" vertex="1" parent="q73aBfs1NUggTAyX3Rre-31">
          <mxGeometry y="120" width="340" height="30" as="geometry" />
        </mxCell>
        <mxCell id="q73aBfs1NUggTAyX3Rre-42" value="" style="shape=partialRectangle;connectable=0;fillColor=none;top=0;left=0;bottom=0;right=0;editable=1;overflow=hidden;fontSize=20;strokeColor=default;" vertex="1" parent="q73aBfs1NUggTAyX3Rre-41">
          <mxGeometry width="150" height="30" as="geometry">
            <mxRectangle width="150" height="30" as="alternateBounds" />
          </mxGeometry>
        </mxCell>
        <mxCell id="q73aBfs1NUggTAyX3Rre-43" value="" style="shape=partialRectangle;connectable=0;fillColor=none;top=0;left=0;bottom=0;right=0;align=center;spacingLeft=6;overflow=hidden;fontSize=20;strokeColor=default;" vertex="1" parent="q73aBfs1NUggTAyX3Rre-41">
          <mxGeometry x="150" width="190" height="30" as="geometry">
            <mxRectangle width="190" height="30" as="alternateBounds" />
          </mxGeometry>
        </mxCell>
        <mxCell id="q73aBfs1NUggTAyX3Rre-44" value="" style="shape=table;startSize=30;container=1;collapsible=1;childLayout=tableLayout;fixedRows=1;rowLines=0;fontStyle=1;align=center;resizeLast=1;fontSize=20;strokeColor=default;" vertex="1" parent="1">
          <mxGeometry x="855" y="-3320" width="340" height="150" as="geometry" />
        </mxCell>
        <mxCell id="q73aBfs1NUggTAyX3Rre-45" value="" style="shape=tableRow;horizontal=0;startSize=0;swimlaneHead=0;swimlaneBody=0;fillColor=none;collapsible=0;dropTarget=0;points=[[0,0.5],[1,0.5]];portConstraint=eastwest;top=0;left=0;right=0;bottom=1;fontSize=20;strokeColor=default;" vertex="1" parent="q73aBfs1NUggTAyX3Rre-44">
          <mxGeometry y="30" width="340" height="30" as="geometry" />
        </mxCell>
        <mxCell id="q73aBfs1NUggTAyX3Rre-46" value="last name" style="shape=partialRectangle;connectable=0;fillColor=none;top=0;left=0;bottom=0;right=0;fontStyle=1;overflow=hidden;fontSize=20;strokeColor=default;" vertex="1" parent="q73aBfs1NUggTAyX3Rre-45">
          <mxGeometry width="150" height="30" as="geometry">
            <mxRectangle width="150" height="30" as="alternateBounds" />
          </mxGeometry>
        </mxCell>
        <mxCell id="q73aBfs1NUggTAyX3Rre-47" value="patronymic" style="shape=partialRectangle;connectable=0;fillColor=none;top=0;left=0;bottom=0;right=0;align=center;spacingLeft=6;fontStyle=1;overflow=hidden;fontSize=20;strokeColor=default;" vertex="1" parent="q73aBfs1NUggTAyX3Rre-45">
          <mxGeometry x="150" width="190" height="30" as="geometry">
            <mxRectangle width="190" height="30" as="alternateBounds" />
          </mxGeometry>
        </mxCell>
        <mxCell id="q73aBfs1NUggTAyX3Rre-48" value="" style="shape=tableRow;horizontal=0;startSize=0;swimlaneHead=0;swimlaneBody=0;fillColor=none;collapsible=0;dropTarget=0;points=[[0,0.5],[1,0.5]];portConstraint=eastwest;top=0;left=0;right=0;bottom=0;fontSize=20;strokeColor=default;" vertex="1" parent="q73aBfs1NUggTAyX3Rre-44">
          <mxGeometry y="60" width="340" height="30" as="geometry" />
        </mxCell>
        <mxCell id="q73aBfs1NUggTAyX3Rre-49" value="Gry" style="shape=partialRectangle;connectable=0;fillColor=none;top=0;left=0;bottom=0;right=0;editable=1;overflow=hidden;fontSize=20;strokeColor=default;" vertex="1" parent="q73aBfs1NUggTAyX3Rre-48">
          <mxGeometry width="150" height="30" as="geometry">
            <mxRectangle width="150" height="30" as="alternateBounds" />
          </mxGeometry>
        </mxCell>
        <mxCell id="q73aBfs1NUggTAyX3Rre-50" value="Anderson" style="shape=partialRectangle;connectable=0;fillColor=none;top=0;left=0;bottom=0;right=0;align=center;spacingLeft=6;overflow=hidden;fontSize=20;strokeColor=default;" vertex="1" parent="q73aBfs1NUggTAyX3Rre-48">
          <mxGeometry x="150" width="190" height="30" as="geometry">
            <mxRectangle width="190" height="30" as="alternateBounds" />
          </mxGeometry>
        </mxCell>
        <mxCell id="q73aBfs1NUggTAyX3Rre-51" value="" style="shape=tableRow;horizontal=0;startSize=0;swimlaneHead=0;swimlaneBody=0;fillColor=none;collapsible=0;dropTarget=0;points=[[0,0.5],[1,0.5]];portConstraint=eastwest;top=0;left=0;right=0;bottom=0;fontSize=20;strokeColor=default;" vertex="1" parent="q73aBfs1NUggTAyX3Rre-44">
          <mxGeometry y="90" width="340" height="30" as="geometry" />
        </mxCell>
        <mxCell id="q73aBfs1NUggTAyX3Rre-52" value="" style="shape=partialRectangle;connectable=0;fillColor=none;top=0;left=0;bottom=0;right=0;editable=1;overflow=hidden;fontSize=20;strokeColor=default;" vertex="1" parent="q73aBfs1NUggTAyX3Rre-51">
          <mxGeometry width="150" height="30" as="geometry">
            <mxRectangle width="150" height="30" as="alternateBounds" />
          </mxGeometry>
        </mxCell>
        <mxCell id="q73aBfs1NUggTAyX3Rre-53" value="" style="shape=partialRectangle;connectable=0;fillColor=none;top=0;left=0;bottom=0;right=0;align=center;spacingLeft=6;overflow=hidden;fontSize=20;strokeColor=default;" vertex="1" parent="q73aBfs1NUggTAyX3Rre-51">
          <mxGeometry x="150" width="190" height="30" as="geometry">
            <mxRectangle width="190" height="30" as="alternateBounds" />
          </mxGeometry>
        </mxCell>
        <mxCell id="q73aBfs1NUggTAyX3Rre-54" value="" style="shape=tableRow;horizontal=0;startSize=0;swimlaneHead=0;swimlaneBody=0;fillColor=none;collapsible=0;dropTarget=0;points=[[0,0.5],[1,0.5]];portConstraint=eastwest;top=0;left=0;right=0;bottom=0;fontSize=20;strokeColor=default;" vertex="1" parent="q73aBfs1NUggTAyX3Rre-44">
          <mxGeometry y="120" width="340" height="30" as="geometry" />
        </mxCell>
        <mxCell id="q73aBfs1NUggTAyX3Rre-55" value="" style="shape=partialRectangle;connectable=0;fillColor=none;top=0;left=0;bottom=0;right=0;editable=1;overflow=hidden;fontSize=20;strokeColor=default;" vertex="1" parent="q73aBfs1NUggTAyX3Rre-54">
          <mxGeometry width="150" height="30" as="geometry">
            <mxRectangle width="150" height="30" as="alternateBounds" />
          </mxGeometry>
        </mxCell>
        <mxCell id="q73aBfs1NUggTAyX3Rre-56" value="" style="shape=partialRectangle;connectable=0;fillColor=none;top=0;left=0;bottom=0;right=0;align=center;spacingLeft=6;overflow=hidden;fontSize=20;strokeColor=default;" vertex="1" parent="q73aBfs1NUggTAyX3Rre-54">
          <mxGeometry x="150" width="190" height="30" as="geometry">
            <mxRectangle width="190" height="30" as="alternateBounds" />
          </mxGeometry>
        </mxCell>
        <mxCell id="q73aBfs1NUggTAyX3Rre-70" value="" style="shape=table;startSize=30;container=1;collapsible=1;childLayout=tableLayout;fixedRows=1;rowLines=0;fontStyle=1;align=center;resizeLast=1;fontSize=20;strokeColor=default;" vertex="1" parent="1">
          <mxGeometry x="1195" y="-3320" width="340" height="150" as="geometry" />
        </mxCell>
        <mxCell id="q73aBfs1NUggTAyX3Rre-71" value="" style="shape=tableRow;horizontal=0;startSize=0;swimlaneHead=0;swimlaneBody=0;fillColor=none;collapsible=0;dropTarget=0;points=[[0,0.5],[1,0.5]];portConstraint=eastwest;top=0;left=0;right=0;bottom=1;fontSize=20;strokeColor=default;" vertex="1" parent="q73aBfs1NUggTAyX3Rre-70">
          <mxGeometry y="30" width="340" height="30" as="geometry" />
        </mxCell>
        <mxCell id="q73aBfs1NUggTAyX3Rre-72" value="number of attempts" style="shape=partialRectangle;connectable=0;fillColor=none;top=0;left=0;bottom=0;right=0;fontStyle=1;overflow=hidden;fontSize=20;strokeColor=default;" vertex="1" parent="q73aBfs1NUggTAyX3Rre-71">
          <mxGeometry width="320" height="30" as="geometry">
            <mxRectangle width="320" height="30" as="alternateBounds" />
          </mxGeometry>
        </mxCell>
        <mxCell id="q73aBfs1NUggTAyX3Rre-73" value="" style="shape=partialRectangle;connectable=0;fillColor=none;top=0;left=0;bottom=0;right=0;align=left;spacingLeft=6;fontStyle=5;overflow=hidden;fontSize=20;strokeColor=default;" vertex="1" parent="q73aBfs1NUggTAyX3Rre-71">
          <mxGeometry x="320" width="20" height="30" as="geometry">
            <mxRectangle width="20" height="30" as="alternateBounds" />
          </mxGeometry>
        </mxCell>
        <mxCell id="q73aBfs1NUggTAyX3Rre-74" value="" style="shape=tableRow;horizontal=0;startSize=0;swimlaneHead=0;swimlaneBody=0;fillColor=none;collapsible=0;dropTarget=0;points=[[0,0.5],[1,0.5]];portConstraint=eastwest;top=0;left=0;right=0;bottom=0;fontSize=20;strokeColor=default;" vertex="1" parent="q73aBfs1NUggTAyX3Rre-70">
          <mxGeometry y="60" width="340" height="30" as="geometry" />
        </mxCell>
        <mxCell id="q73aBfs1NUggTAyX3Rre-75" value="8" style="shape=partialRectangle;connectable=0;fillColor=none;top=0;left=0;bottom=0;right=0;editable=1;overflow=hidden;fontSize=20;strokeColor=default;" vertex="1" parent="q73aBfs1NUggTAyX3Rre-74">
          <mxGeometry width="320" height="30" as="geometry">
            <mxRectangle width="320" height="30" as="alternateBounds" />
          </mxGeometry>
        </mxCell>
        <mxCell id="q73aBfs1NUggTAyX3Rre-76" value="" style="shape=partialRectangle;connectable=0;fillColor=none;top=0;left=0;bottom=0;right=0;align=left;spacingLeft=6;overflow=hidden;fontSize=20;strokeColor=default;" vertex="1" parent="q73aBfs1NUggTAyX3Rre-74">
          <mxGeometry x="320" width="20" height="30" as="geometry">
            <mxRectangle width="20" height="30" as="alternateBounds" />
          </mxGeometry>
        </mxCell>
        <mxCell id="q73aBfs1NUggTAyX3Rre-77" value="" style="shape=tableRow;horizontal=0;startSize=0;swimlaneHead=0;swimlaneBody=0;fillColor=none;collapsible=0;dropTarget=0;points=[[0,0.5],[1,0.5]];portConstraint=eastwest;top=0;left=0;right=0;bottom=0;fontSize=20;strokeColor=default;" vertex="1" parent="q73aBfs1NUggTAyX3Rre-70">
          <mxGeometry y="90" width="340" height="20" as="geometry" />
        </mxCell>
        <mxCell id="q73aBfs1NUggTAyX3Rre-78" value="" style="shape=partialRectangle;connectable=0;fillColor=none;top=0;left=0;bottom=0;right=0;editable=1;overflow=hidden;fontSize=20;strokeColor=default;" vertex="1" parent="q73aBfs1NUggTAyX3Rre-77">
          <mxGeometry width="320" height="20" as="geometry">
            <mxRectangle width="320" height="20" as="alternateBounds" />
          </mxGeometry>
        </mxCell>
        <mxCell id="q73aBfs1NUggTAyX3Rre-79" value="" style="shape=partialRectangle;connectable=0;fillColor=none;top=0;left=0;bottom=0;right=0;align=left;spacingLeft=6;overflow=hidden;fontSize=20;strokeColor=default;" vertex="1" parent="q73aBfs1NUggTAyX3Rre-77">
          <mxGeometry x="320" width="20" height="20" as="geometry">
            <mxRectangle width="20" height="20" as="alternateBounds" />
          </mxGeometry>
        </mxCell>
        <mxCell id="q73aBfs1NUggTAyX3Rre-80" value="" style="shape=tableRow;horizontal=0;startSize=0;swimlaneHead=0;swimlaneBody=0;fillColor=none;collapsible=0;dropTarget=0;points=[[0,0.5],[1,0.5]];portConstraint=eastwest;top=0;left=0;right=0;bottom=0;fontSize=20;strokeColor=default;" vertex="1" parent="q73aBfs1NUggTAyX3Rre-70">
          <mxGeometry y="110" width="340" height="40" as="geometry" />
        </mxCell>
        <mxCell id="q73aBfs1NUggTAyX3Rre-81" value="" style="shape=partialRectangle;connectable=0;fillColor=none;top=0;left=0;bottom=0;right=0;editable=1;overflow=hidden;fontSize=20;strokeColor=default;" vertex="1" parent="q73aBfs1NUggTAyX3Rre-80">
          <mxGeometry width="320" height="40" as="geometry">
            <mxRectangle width="320" height="40" as="alternateBounds" />
          </mxGeometry>
        </mxCell>
        <mxCell id="q73aBfs1NUggTAyX3Rre-82" value="" style="shape=partialRectangle;connectable=0;fillColor=none;top=0;left=0;bottom=0;right=0;align=left;spacingLeft=6;overflow=hidden;fontSize=20;strokeColor=default;" vertex="1" parent="q73aBfs1NUggTAyX3Rre-80">
          <mxGeometry x="320" width="20" height="40" as="geometry">
            <mxRectangle width="20" height="40" as="alternateBounds" />
          </mxGeometry>
        </mxCell>
        <mxCell id="q73aBfs1NUggTAyX3Rre-83" value="" style="shape=table;startSize=30;container=1;collapsible=1;childLayout=tableLayout;fixedRows=1;rowLines=0;fontStyle=1;align=center;resizeLast=1;fontSize=20;strokeColor=default;" vertex="1" parent="1">
          <mxGeometry x="95" y="-3060" width="395" height="150" as="geometry" />
        </mxCell>
        <mxCell id="q73aBfs1NUggTAyX3Rre-84" value="" style="shape=tableRow;horizontal=0;startSize=0;swimlaneHead=0;swimlaneBody=0;fillColor=none;collapsible=0;dropTarget=0;points=[[0,0.5],[1,0.5]];portConstraint=eastwest;top=0;left=0;right=0;bottom=1;fontSize=20;strokeColor=default;" vertex="1" parent="q73aBfs1NUggTAyX3Rre-83">
          <mxGeometry y="30" width="395" height="30" as="geometry" />
        </mxCell>
        <mxCell id="q73aBfs1NUggTAyX3Rre-85" value="respondent_email" style="shape=partialRectangle;connectable=0;fillColor=none;top=0;left=0;bottom=0;right=0;fontStyle=1;overflow=hidden;fontSize=20;strokeColor=default;" vertex="1" parent="q73aBfs1NUggTAyX3Rre-84">
          <mxGeometry width="175" height="30" as="geometry">
            <mxRectangle width="175" height="30" as="alternateBounds" />
          </mxGeometry>
        </mxCell>
        <mxCell id="q73aBfs1NUggTAyX3Rre-86" value="researcher_email" style="shape=partialRectangle;connectable=0;fillColor=none;top=0;left=0;bottom=0;right=0;align=left;spacingLeft=6;fontStyle=1;overflow=hidden;fontSize=20;strokeColor=default;" vertex="1" parent="q73aBfs1NUggTAyX3Rre-84">
          <mxGeometry x="175" width="220" height="30" as="geometry">
            <mxRectangle width="220" height="30" as="alternateBounds" />
          </mxGeometry>
        </mxCell>
        <mxCell id="q73aBfs1NUggTAyX3Rre-87" value="" style="shape=tableRow;horizontal=0;startSize=0;swimlaneHead=0;swimlaneBody=0;fillColor=none;collapsible=0;dropTarget=0;points=[[0,0.5],[1,0.5]];portConstraint=eastwest;top=0;left=0;right=0;bottom=0;fontSize=20;strokeColor=default;" vertex="1" parent="q73aBfs1NUggTAyX3Rre-83">
          <mxGeometry y="60" width="395" height="30" as="geometry" />
        </mxCell>
        <mxCell id="q73aBfs1NUggTAyX3Rre-88" value="1" style="shape=partialRectangle;connectable=0;fillColor=none;top=0;left=0;bottom=0;right=0;editable=1;overflow=hidden;fontSize=20;strokeColor=default;" vertex="1" parent="q73aBfs1NUggTAyX3Rre-87">
          <mxGeometry width="175" height="30" as="geometry">
            <mxRectangle width="175" height="30" as="alternateBounds" />
          </mxGeometry>
        </mxCell>
        <mxCell id="q73aBfs1NUggTAyX3Rre-89" value="1" style="shape=partialRectangle;connectable=0;fillColor=none;top=0;left=0;bottom=0;right=0;align=center;spacingLeft=6;overflow=hidden;fontSize=20;strokeColor=default;" vertex="1" parent="q73aBfs1NUggTAyX3Rre-87">
          <mxGeometry x="175" width="220" height="30" as="geometry">
            <mxRectangle width="220" height="30" as="alternateBounds" />
          </mxGeometry>
        </mxCell>
        <mxCell id="q73aBfs1NUggTAyX3Rre-90" value="" style="shape=tableRow;horizontal=0;startSize=0;swimlaneHead=0;swimlaneBody=0;fillColor=none;collapsible=0;dropTarget=0;points=[[0,0.5],[1,0.5]];portConstraint=eastwest;top=0;left=0;right=0;bottom=0;fontSize=20;strokeColor=default;" vertex="1" parent="q73aBfs1NUggTAyX3Rre-83">
          <mxGeometry y="90" width="395" height="30" as="geometry" />
        </mxCell>
        <mxCell id="q73aBfs1NUggTAyX3Rre-91" value="1" style="shape=partialRectangle;connectable=0;fillColor=none;top=0;left=0;bottom=0;right=0;editable=1;overflow=hidden;fontSize=20;strokeColor=default;" vertex="1" parent="q73aBfs1NUggTAyX3Rre-90">
          <mxGeometry width="175" height="30" as="geometry">
            <mxRectangle width="175" height="30" as="alternateBounds" />
          </mxGeometry>
        </mxCell>
        <mxCell id="q73aBfs1NUggTAyX3Rre-92" value="2" style="shape=partialRectangle;connectable=0;fillColor=none;top=0;left=0;bottom=0;right=0;align=center;spacingLeft=6;overflow=hidden;fontSize=20;strokeColor=default;" vertex="1" parent="q73aBfs1NUggTAyX3Rre-90">
          <mxGeometry x="175" width="220" height="30" as="geometry">
            <mxRectangle width="220" height="30" as="alternateBounds" />
          </mxGeometry>
        </mxCell>
        <mxCell id="q73aBfs1NUggTAyX3Rre-93" value="" style="shape=tableRow;horizontal=0;startSize=0;swimlaneHead=0;swimlaneBody=0;fillColor=none;collapsible=0;dropTarget=0;points=[[0,0.5],[1,0.5]];portConstraint=eastwest;top=0;left=0;right=0;bottom=0;fontSize=20;strokeColor=default;" vertex="1" parent="q73aBfs1NUggTAyX3Rre-83">
          <mxGeometry y="120" width="395" height="30" as="geometry" />
        </mxCell>
        <mxCell id="q73aBfs1NUggTAyX3Rre-94" value="2" style="shape=partialRectangle;connectable=0;fillColor=none;top=0;left=0;bottom=0;right=0;editable=1;overflow=hidden;fontSize=20;strokeColor=default;" vertex="1" parent="q73aBfs1NUggTAyX3Rre-93">
          <mxGeometry width="175" height="30" as="geometry">
            <mxRectangle width="175" height="30" as="alternateBounds" />
          </mxGeometry>
        </mxCell>
        <mxCell id="q73aBfs1NUggTAyX3Rre-95" value="1" style="shape=partialRectangle;connectable=0;fillColor=none;top=0;left=0;bottom=0;right=0;align=center;spacingLeft=6;overflow=hidden;fontSize=20;strokeColor=default;" vertex="1" parent="q73aBfs1NUggTAyX3Rre-93">
          <mxGeometry x="175" width="220" height="30" as="geometry">
            <mxRectangle width="220" height="30" as="alternateBounds" />
          </mxGeometry>
        </mxCell>
        <mxCell id="q73aBfs1NUggTAyX3Rre-96" value="1" style="swimlane;fontStyle=0;childLayout=stackLayout;horizontal=1;startSize=26;horizontalStack=0;resizeParent=1;resizeParentMax=0;resizeLast=0;collapsible=1;marginBottom=0;align=center;fontSize=20;strokeColor=default;" vertex="1" parent="1">
          <mxGeometry x="270" y="-2794" width="235" height="116" as="geometry" />
        </mxCell>
        <mxCell id="q73aBfs1NUggTAyX3Rre-97" value="2" style="text;strokeColor=none;fillColor=none;spacingLeft=4;spacingRight=4;overflow=hidden;rotatable=0;points=[[0,0.5],[1,0.5]];portConstraint=eastwest;fontSize=20;align=center;" vertex="1" parent="q73aBfs1NUggTAyX3Rre-96">
          <mxGeometry y="26" width="235" height="30" as="geometry" />
        </mxCell>
        <mxCell id="q73aBfs1NUggTAyX3Rre-98" value="3" style="text;strokeColor=none;fillColor=none;spacingLeft=4;spacingRight=4;overflow=hidden;rotatable=0;points=[[0,0.5],[1,0.5]];portConstraint=eastwest;fontSize=20;align=center;" vertex="1" parent="q73aBfs1NUggTAyX3Rre-96">
          <mxGeometry y="56" width="235" height="30" as="geometry" />
        </mxCell>
        <mxCell id="q73aBfs1NUggTAyX3Rre-99" value="1" style="text;strokeColor=none;fillColor=none;spacingLeft=4;spacingRight=4;overflow=hidden;rotatable=0;points=[[0,0.5],[1,0.5]];portConstraint=eastwest;fontSize=20;align=center;" vertex="1" parent="q73aBfs1NUggTAyX3Rre-96">
          <mxGeometry y="86" width="235" height="30" as="geometry" />
        </mxCell>
        <mxCell id="q73aBfs1NUggTAyX3Rre-100" value="1" style="swimlane;fontStyle=0;childLayout=stackLayout;horizontal=1;startSize=26;horizontalStack=0;resizeParent=1;resizeParentMax=0;resizeLast=0;collapsible=1;marginBottom=0;align=center;fontSize=20;strokeColor=default;" vertex="1" parent="1">
          <mxGeometry x="270" y="-2910" width="230" height="114" as="geometry" />
        </mxCell>
        <mxCell id="q73aBfs1NUggTAyX3Rre-101" value="1" style="text;strokeColor=none;fillColor=none;spacingLeft=4;spacingRight=4;overflow=hidden;rotatable=0;points=[[0,0.5],[1,0.5]];portConstraint=eastwest;fontSize=20;align=center;" vertex="1" parent="q73aBfs1NUggTAyX3Rre-100">
          <mxGeometry y="26" width="230" height="30" as="geometry" />
        </mxCell>
        <mxCell id="q73aBfs1NUggTAyX3Rre-102" value="2" style="text;strokeColor=none;fillColor=none;spacingLeft=4;spacingRight=4;overflow=hidden;rotatable=0;points=[[0,0.5],[1,0.5]];portConstraint=eastwest;fontSize=20;align=center;" vertex="1" parent="q73aBfs1NUggTAyX3Rre-100">
          <mxGeometry y="56" width="230" height="30" as="geometry" />
        </mxCell>
        <mxCell id="q73aBfs1NUggTAyX3Rre-103" value="3" style="text;strokeColor=none;fillColor=none;spacingLeft=4;spacingRight=4;overflow=hidden;rotatable=0;points=[[0,0.5],[1,0.5]];portConstraint=eastwest;fontSize=20;align=center;" vertex="1" parent="q73aBfs1NUggTAyX3Rre-100">
          <mxGeometry y="86" width="230" height="28" as="geometry" />
        </mxCell>
        <mxCell id="q73aBfs1NUggTAyX3Rre-104" value="3" style="swimlane;fontStyle=0;childLayout=stackLayout;horizontal=1;startSize=26;horizontalStack=0;resizeParent=1;resizeParentMax=0;resizeLast=0;collapsible=1;marginBottom=0;align=center;fontSize=20;strokeColor=default;" vertex="1" parent="1">
          <mxGeometry x="95" y="-2910" width="170" height="116" as="geometry" />
        </mxCell>
        <mxCell id="q73aBfs1NUggTAyX3Rre-105" value="3" style="text;strokeColor=none;fillColor=none;spacingLeft=4;spacingRight=4;overflow=hidden;rotatable=0;points=[[0,0.5],[1,0.5]];portConstraint=eastwest;fontSize=20;align=center;" vertex="1" parent="q73aBfs1NUggTAyX3Rre-104">
          <mxGeometry y="26" width="170" height="30" as="geometry" />
        </mxCell>
        <mxCell id="q73aBfs1NUggTAyX3Rre-106" value="3" style="text;strokeColor=none;fillColor=none;spacingLeft=4;spacingRight=4;overflow=hidden;rotatable=0;points=[[0,0.5],[1,0.5]];portConstraint=eastwest;fontSize=20;align=center;" vertex="1" parent="q73aBfs1NUggTAyX3Rre-104">
          <mxGeometry y="56" width="170" height="30" as="geometry" />
        </mxCell>
        <mxCell id="q73aBfs1NUggTAyX3Rre-107" value="4" style="text;strokeColor=none;fillColor=none;spacingLeft=4;spacingRight=4;overflow=hidden;rotatable=0;points=[[0,0.5],[1,0.5]];portConstraint=eastwest;fontSize=20;align=center;" vertex="1" parent="q73aBfs1NUggTAyX3Rre-104">
          <mxGeometry y="86" width="170" height="30" as="geometry" />
        </mxCell>
        <mxCell id="q73aBfs1NUggTAyX3Rre-108" value="1" style="swimlane;fontStyle=0;childLayout=stackLayout;horizontal=1;startSize=26;horizontalStack=0;resizeParent=1;resizeParentMax=0;resizeLast=0;collapsible=1;marginBottom=0;align=center;fontSize=20;strokeColor=default;" vertex="1" parent="1">
          <mxGeometry x="95" y="-2794" width="170" height="116" as="geometry" />
        </mxCell>
        <mxCell id="q73aBfs1NUggTAyX3Rre-109" value="1" style="text;strokeColor=none;fillColor=none;spacingLeft=4;spacingRight=4;overflow=hidden;rotatable=0;points=[[0,0.5],[1,0.5]];portConstraint=eastwest;fontSize=20;align=center;" vertex="1" parent="q73aBfs1NUggTAyX3Rre-108">
          <mxGeometry y="26" width="170" height="30" as="geometry" />
        </mxCell>
        <mxCell id="q73aBfs1NUggTAyX3Rre-110" value="2" style="text;strokeColor=none;fillColor=none;spacingLeft=4;spacingRight=4;overflow=hidden;rotatable=0;points=[[0,0.5],[1,0.5]];portConstraint=eastwest;fontSize=20;align=center;" vertex="1" parent="q73aBfs1NUggTAyX3Rre-108">
          <mxGeometry y="56" width="170" height="30" as="geometry" />
        </mxCell>
        <mxCell id="q73aBfs1NUggTAyX3Rre-111" value="3" style="text;strokeColor=none;fillColor=none;spacingLeft=4;spacingRight=4;overflow=hidden;rotatable=0;points=[[0,0.5],[1,0.5]];portConstraint=eastwest;fontSize=20;align=center;" vertex="1" parent="q73aBfs1NUggTAyX3Rre-108">
          <mxGeometry y="86" width="170" height="30" as="geometry" />
        </mxCell>
        <mxCell id="q73aBfs1NUggTAyX3Rre-112" value="" style="shape=table;startSize=30;container=1;collapsible=1;childLayout=tableLayout;fixedRows=1;rowLines=0;fontStyle=1;align=center;resizeLast=1;fontSize=20;strokeColor=default;" vertex="1" parent="1">
          <mxGeometry x="675" y="-3010" width="340" height="150" as="geometry" />
        </mxCell>
        <mxCell id="q73aBfs1NUggTAyX3Rre-113" value="" style="shape=tableRow;horizontal=0;startSize=0;swimlaneHead=0;swimlaneBody=0;fillColor=none;collapsible=0;dropTarget=0;points=[[0,0.5],[1,0.5]];portConstraint=eastwest;top=0;left=0;right=0;bottom=1;fontSize=20;strokeColor=default;" vertex="1" parent="q73aBfs1NUggTAyX3Rre-112">
          <mxGeometry y="30" width="340" height="30" as="geometry" />
        </mxCell>
        <mxCell id="q73aBfs1NUggTAyX3Rre-114" value="email" style="shape=partialRectangle;connectable=0;fillColor=none;top=0;left=0;bottom=0;right=0;fontStyle=1;overflow=hidden;fontSize=20;strokeColor=default;" vertex="1" parent="q73aBfs1NUggTAyX3Rre-113">
          <mxGeometry width="175" height="30" as="geometry">
            <mxRectangle width="175" height="30" as="alternateBounds" />
          </mxGeometry>
        </mxCell>
        <mxCell id="q73aBfs1NUggTAyX3Rre-115" value="first name" style="shape=partialRectangle;connectable=0;fillColor=none;top=0;left=0;bottom=0;right=0;align=center;spacingLeft=6;fontStyle=1;overflow=hidden;fontSize=20;strokeColor=default;" vertex="1" parent="q73aBfs1NUggTAyX3Rre-113">
          <mxGeometry x="175" width="165" height="30" as="geometry">
            <mxRectangle width="165" height="30" as="alternateBounds" />
          </mxGeometry>
        </mxCell>
        <mxCell id="q73aBfs1NUggTAyX3Rre-116" value="" style="shape=tableRow;horizontal=0;startSize=0;swimlaneHead=0;swimlaneBody=0;fillColor=none;collapsible=0;dropTarget=0;points=[[0,0.5],[1,0.5]];portConstraint=eastwest;top=0;left=0;right=0;bottom=0;fontSize=20;strokeColor=default;" vertex="1" parent="q73aBfs1NUggTAyX3Rre-112">
          <mxGeometry y="60" width="340" height="30" as="geometry" />
        </mxCell>
        <mxCell id="q73aBfs1NUggTAyX3Rre-117" value="ivan@gmail.com" style="shape=partialRectangle;connectable=0;fillColor=none;top=0;left=0;bottom=0;right=0;editable=1;overflow=hidden;fontSize=20;strokeColor=default;" vertex="1" parent="q73aBfs1NUggTAyX3Rre-116">
          <mxGeometry width="175" height="30" as="geometry">
            <mxRectangle width="175" height="30" as="alternateBounds" />
          </mxGeometry>
        </mxCell>
        <mxCell id="q73aBfs1NUggTAyX3Rre-118" value="ivan" style="shape=partialRectangle;connectable=0;fillColor=none;top=0;left=0;bottom=0;right=0;align=center;spacingLeft=6;overflow=hidden;fontSize=20;strokeColor=default;" vertex="1" parent="q73aBfs1NUggTAyX3Rre-116">
          <mxGeometry x="175" width="165" height="30" as="geometry">
            <mxRectangle width="165" height="30" as="alternateBounds" />
          </mxGeometry>
        </mxCell>
        <mxCell id="q73aBfs1NUggTAyX3Rre-119" value="" style="shape=tableRow;horizontal=0;startSize=0;swimlaneHead=0;swimlaneBody=0;fillColor=none;collapsible=0;dropTarget=0;points=[[0,0.5],[1,0.5]];portConstraint=eastwest;top=0;left=0;right=0;bottom=0;fontSize=20;strokeColor=default;" vertex="1" parent="q73aBfs1NUggTAyX3Rre-112">
          <mxGeometry y="90" width="340" height="30" as="geometry" />
        </mxCell>
        <mxCell id="q73aBfs1NUggTAyX3Rre-120" value="hob@gmail.com" style="shape=partialRectangle;connectable=0;fillColor=none;top=0;left=0;bottom=0;right=0;editable=1;overflow=hidden;fontSize=20;strokeColor=default;" vertex="1" parent="q73aBfs1NUggTAyX3Rre-119">
          <mxGeometry width="175" height="30" as="geometry">
            <mxRectangle width="175" height="30" as="alternateBounds" />
          </mxGeometry>
        </mxCell>
        <mxCell id="q73aBfs1NUggTAyX3Rre-121" value="" style="shape=partialRectangle;connectable=0;fillColor=none;top=0;left=0;bottom=0;right=0;align=left;spacingLeft=6;overflow=hidden;fontSize=20;strokeColor=default;" vertex="1" parent="q73aBfs1NUggTAyX3Rre-119">
          <mxGeometry x="175" width="165" height="30" as="geometry">
            <mxRectangle width="165" height="30" as="alternateBounds" />
          </mxGeometry>
        </mxCell>
        <mxCell id="q73aBfs1NUggTAyX3Rre-122" value="" style="shape=tableRow;horizontal=0;startSize=0;swimlaneHead=0;swimlaneBody=0;fillColor=none;collapsible=0;dropTarget=0;points=[[0,0.5],[1,0.5]];portConstraint=eastwest;top=0;left=0;right=0;bottom=0;fontSize=20;strokeColor=default;" vertex="1" parent="q73aBfs1NUggTAyX3Rre-112">
          <mxGeometry y="120" width="340" height="30" as="geometry" />
        </mxCell>
        <mxCell id="q73aBfs1NUggTAyX3Rre-123" value="warrior@gmail.com" style="shape=partialRectangle;connectable=0;fillColor=none;top=0;left=0;bottom=0;right=0;editable=1;overflow=hidden;fontSize=20;strokeColor=default;" vertex="1" parent="q73aBfs1NUggTAyX3Rre-122">
          <mxGeometry width="175" height="30" as="geometry">
            <mxRectangle width="175" height="30" as="alternateBounds" />
          </mxGeometry>
        </mxCell>
        <mxCell id="q73aBfs1NUggTAyX3Rre-124" value="" style="shape=partialRectangle;connectable=0;fillColor=none;top=0;left=0;bottom=0;right=0;align=left;spacingLeft=6;overflow=hidden;fontSize=20;strokeColor=default;" vertex="1" parent="q73aBfs1NUggTAyX3Rre-122">
          <mxGeometry x="175" width="165" height="30" as="geometry">
            <mxRectangle width="165" height="30" as="alternateBounds" />
          </mxGeometry>
        </mxCell>
        <mxCell id="q73aBfs1NUggTAyX3Rre-125" value="" style="shape=table;startSize=30;container=1;collapsible=1;childLayout=tableLayout;fixedRows=1;rowLines=0;fontStyle=1;align=center;resizeLast=1;fontSize=20;strokeColor=default;" vertex="1" parent="1">
          <mxGeometry x="1015" y="-3010" width="340" height="150" as="geometry" />
        </mxCell>
        <mxCell id="q73aBfs1NUggTAyX3Rre-126" value="" style="shape=tableRow;horizontal=0;startSize=0;swimlaneHead=0;swimlaneBody=0;fillColor=none;collapsible=0;dropTarget=0;points=[[0,0.5],[1,0.5]];portConstraint=eastwest;top=0;left=0;right=0;bottom=1;fontSize=20;strokeColor=default;" vertex="1" parent="q73aBfs1NUggTAyX3Rre-125">
          <mxGeometry y="30" width="340" height="30" as="geometry" />
        </mxCell>
        <mxCell id="q73aBfs1NUggTAyX3Rre-127" value="last name" style="shape=partialRectangle;connectable=0;fillColor=none;top=0;left=0;bottom=0;right=0;fontStyle=1;overflow=hidden;fontSize=20;strokeColor=default;" vertex="1" parent="q73aBfs1NUggTAyX3Rre-126">
          <mxGeometry width="150" height="30" as="geometry">
            <mxRectangle width="150" height="30" as="alternateBounds" />
          </mxGeometry>
        </mxCell>
        <mxCell id="q73aBfs1NUggTAyX3Rre-128" value="patronymic" style="shape=partialRectangle;connectable=0;fillColor=none;top=0;left=0;bottom=0;right=0;align=center;spacingLeft=6;fontStyle=1;overflow=hidden;fontSize=20;strokeColor=default;" vertex="1" parent="q73aBfs1NUggTAyX3Rre-126">
          <mxGeometry x="150" width="190" height="30" as="geometry">
            <mxRectangle width="190" height="30" as="alternateBounds" />
          </mxGeometry>
        </mxCell>
        <mxCell id="q73aBfs1NUggTAyX3Rre-129" value="" style="shape=tableRow;horizontal=0;startSize=0;swimlaneHead=0;swimlaneBody=0;fillColor=none;collapsible=0;dropTarget=0;points=[[0,0.5],[1,0.5]];portConstraint=eastwest;top=0;left=0;right=0;bottom=0;fontSize=20;strokeColor=default;" vertex="1" parent="q73aBfs1NUggTAyX3Rre-125">
          <mxGeometry y="60" width="340" height="30" as="geometry" />
        </mxCell>
        <mxCell id="q73aBfs1NUggTAyX3Rre-130" value="ivanov" style="shape=partialRectangle;connectable=0;fillColor=none;top=0;left=0;bottom=0;right=0;editable=1;overflow=hidden;fontSize=20;strokeColor=default;" vertex="1" parent="q73aBfs1NUggTAyX3Rre-129">
          <mxGeometry width="150" height="30" as="geometry">
            <mxRectangle width="150" height="30" as="alternateBounds" />
          </mxGeometry>
        </mxCell>
        <mxCell id="q73aBfs1NUggTAyX3Rre-131" value="ivanovich" style="shape=partialRectangle;connectable=0;fillColor=none;top=0;left=0;bottom=0;right=0;align=center;spacingLeft=6;overflow=hidden;fontSize=20;strokeColor=default;" vertex="1" parent="q73aBfs1NUggTAyX3Rre-129">
          <mxGeometry x="150" width="190" height="30" as="geometry">
            <mxRectangle width="190" height="30" as="alternateBounds" />
          </mxGeometry>
        </mxCell>
        <mxCell id="q73aBfs1NUggTAyX3Rre-132" value="" style="shape=tableRow;horizontal=0;startSize=0;swimlaneHead=0;swimlaneBody=0;fillColor=none;collapsible=0;dropTarget=0;points=[[0,0.5],[1,0.5]];portConstraint=eastwest;top=0;left=0;right=0;bottom=0;fontSize=20;strokeColor=default;" vertex="1" parent="q73aBfs1NUggTAyX3Rre-125">
          <mxGeometry y="90" width="340" height="30" as="geometry" />
        </mxCell>
        <mxCell id="q73aBfs1NUggTAyX3Rre-133" value="" style="shape=partialRectangle;connectable=0;fillColor=none;top=0;left=0;bottom=0;right=0;editable=1;overflow=hidden;fontSize=20;strokeColor=default;" vertex="1" parent="q73aBfs1NUggTAyX3Rre-132">
          <mxGeometry width="150" height="30" as="geometry">
            <mxRectangle width="150" height="30" as="alternateBounds" />
          </mxGeometry>
        </mxCell>
        <mxCell id="q73aBfs1NUggTAyX3Rre-134" value="" style="shape=partialRectangle;connectable=0;fillColor=none;top=0;left=0;bottom=0;right=0;align=center;spacingLeft=6;overflow=hidden;fontSize=20;strokeColor=default;" vertex="1" parent="q73aBfs1NUggTAyX3Rre-132">
          <mxGeometry x="150" width="190" height="30" as="geometry">
            <mxRectangle width="190" height="30" as="alternateBounds" />
          </mxGeometry>
        </mxCell>
        <mxCell id="q73aBfs1NUggTAyX3Rre-135" value="" style="shape=tableRow;horizontal=0;startSize=0;swimlaneHead=0;swimlaneBody=0;fillColor=none;collapsible=0;dropTarget=0;points=[[0,0.5],[1,0.5]];portConstraint=eastwest;top=0;left=0;right=0;bottom=0;fontSize=20;strokeColor=default;" vertex="1" parent="q73aBfs1NUggTAyX3Rre-125">
          <mxGeometry y="120" width="340" height="30" as="geometry" />
        </mxCell>
        <mxCell id="q73aBfs1NUggTAyX3Rre-136" value="" style="shape=partialRectangle;connectable=0;fillColor=none;top=0;left=0;bottom=0;right=0;editable=1;overflow=hidden;fontSize=20;strokeColor=default;" vertex="1" parent="q73aBfs1NUggTAyX3Rre-135">
          <mxGeometry width="150" height="30" as="geometry">
            <mxRectangle width="150" height="30" as="alternateBounds" />
          </mxGeometry>
        </mxCell>
        <mxCell id="q73aBfs1NUggTAyX3Rre-137" value="" style="shape=partialRectangle;connectable=0;fillColor=none;top=0;left=0;bottom=0;right=0;align=center;spacingLeft=6;overflow=hidden;fontSize=20;strokeColor=default;" vertex="1" parent="q73aBfs1NUggTAyX3Rre-135">
          <mxGeometry x="150" width="190" height="30" as="geometry">
            <mxRectangle width="190" height="30" as="alternateBounds" />
          </mxGeometry>
        </mxCell>
        <mxCell id="q73aBfs1NUggTAyX3Rre-151" value="&lt;span style=&quot;font-size: 40px;&quot;&gt;respondents&lt;/span&gt;" style="text;html=1;align=center;verticalAlign=middle;resizable=0;points=[];autosize=1;strokeColor=none;fillColor=none;fontSize=16;" vertex="1" parent="1">
          <mxGeometry x="880" y="-3380" width="240" height="60" as="geometry" />
        </mxCell>
        <mxCell id="q73aBfs1NUggTAyX3Rre-152" value="&lt;span style=&quot;text-align: left;&quot;&gt;&lt;font style=&quot;font-size: 40px;&quot;&gt;researchers&lt;/font&gt;&lt;/span&gt;" style="text;html=1;align=center;verticalAlign=middle;resizable=0;points=[];autosize=1;strokeColor=none;fillColor=none;fontSize=16;fontStyle=0" vertex="1" parent="1">
          <mxGeometry x="935" y="-3080" width="230" height="60" as="geometry" />
        </mxCell>
        <mxCell id="q73aBfs1NUggTAyX3Rre-153" value="Tests" style="text;html=1;align=center;verticalAlign=middle;resizable=0;points=[];autosize=1;strokeColor=none;fillColor=none;fontSize=40;" vertex="1" parent="1">
          <mxGeometry x="1300" y="-3760" width="120" height="60" as="geometry" />
        </mxCell>
        <mxCell id="q73aBfs1NUggTAyX3Rre-154" value="" style="shape=table;startSize=30;container=1;collapsible=1;childLayout=tableLayout;fixedRows=1;rowLines=0;fontStyle=1;align=center;resizeLast=1;fontSize=20;strokeColor=default;" vertex="1" parent="1">
          <mxGeometry x="1005" y="-3680" width="340" height="150" as="geometry" />
        </mxCell>
        <mxCell id="q73aBfs1NUggTAyX3Rre-155" value="" style="shape=tableRow;horizontal=0;startSize=0;swimlaneHead=0;swimlaneBody=0;fillColor=none;collapsible=0;dropTarget=0;points=[[0,0.5],[1,0.5]];portConstraint=eastwest;top=0;left=0;right=0;bottom=1;fontSize=20;strokeColor=default;" vertex="1" parent="q73aBfs1NUggTAyX3Rre-154">
          <mxGeometry y="30" width="340" height="30" as="geometry" />
        </mxCell>
        <mxCell id="q73aBfs1NUggTAyX3Rre-156" value="description" style="shape=partialRectangle;connectable=0;fillColor=none;top=0;left=0;bottom=0;right=0;fontStyle=1;overflow=hidden;fontSize=20;strokeColor=default;" vertex="1" parent="q73aBfs1NUggTAyX3Rre-155">
          <mxGeometry width="150" height="30" as="geometry">
            <mxRectangle width="150" height="30" as="alternateBounds" />
          </mxGeometry>
        </mxCell>
        <mxCell id="q73aBfs1NUggTAyX3Rre-157" value="status" style="shape=partialRectangle;connectable=0;fillColor=none;top=0;left=0;bottom=0;right=0;align=center;spacingLeft=6;fontStyle=1;overflow=hidden;fontSize=20;strokeColor=default;" vertex="1" parent="q73aBfs1NUggTAyX3Rre-155">
          <mxGeometry x="150" width="190" height="30" as="geometry">
            <mxRectangle width="190" height="30" as="alternateBounds" />
          </mxGeometry>
        </mxCell>
        <mxCell id="q73aBfs1NUggTAyX3Rre-158" value="" style="shape=tableRow;horizontal=0;startSize=0;swimlaneHead=0;swimlaneBody=0;fillColor=none;collapsible=0;dropTarget=0;points=[[0,0.5],[1,0.5]];portConstraint=eastwest;top=0;left=0;right=0;bottom=0;fontSize=20;strokeColor=default;" vertex="1" parent="q73aBfs1NUggTAyX3Rre-154">
          <mxGeometry y="60" width="340" height="30" as="geometry" />
        </mxCell>
        <mxCell id="q73aBfs1NUggTAyX3Rre-159" value="the best test" style="shape=partialRectangle;connectable=0;fillColor=none;top=0;left=0;bottom=0;right=0;editable=1;overflow=hidden;fontSize=20;strokeColor=default;" vertex="1" parent="q73aBfs1NUggTAyX3Rre-158">
          <mxGeometry width="150" height="30" as="geometry">
            <mxRectangle width="150" height="30" as="alternateBounds" />
          </mxGeometry>
        </mxCell>
        <mxCell id="q73aBfs1NUggTAyX3Rre-160" value=" not started" style="shape=partialRectangle;connectable=0;fillColor=none;top=0;left=0;bottom=0;right=0;align=center;spacingLeft=6;overflow=hidden;fontSize=20;strokeColor=default;" vertex="1" parent="q73aBfs1NUggTAyX3Rre-158">
          <mxGeometry x="150" width="190" height="30" as="geometry">
            <mxRectangle width="190" height="30" as="alternateBounds" />
          </mxGeometry>
        </mxCell>
        <mxCell id="q73aBfs1NUggTAyX3Rre-161" value="" style="shape=tableRow;horizontal=0;startSize=0;swimlaneHead=0;swimlaneBody=0;fillColor=none;collapsible=0;dropTarget=0;points=[[0,0.5],[1,0.5]];portConstraint=eastwest;top=0;left=0;right=0;bottom=0;fontSize=20;strokeColor=default;" vertex="1" parent="q73aBfs1NUggTAyX3Rre-154">
          <mxGeometry y="90" width="340" height="30" as="geometry" />
        </mxCell>
        <mxCell id="q73aBfs1NUggTAyX3Rre-162" value="the best test" style="shape=partialRectangle;connectable=0;fillColor=none;top=0;left=0;bottom=0;right=0;editable=1;overflow=hidden;fontSize=20;strokeColor=default;" vertex="1" parent="q73aBfs1NUggTAyX3Rre-161">
          <mxGeometry width="150" height="30" as="geometry">
            <mxRectangle width="150" height="30" as="alternateBounds" />
          </mxGeometry>
        </mxCell>
        <mxCell id="q73aBfs1NUggTAyX3Rre-163" value="finished" style="shape=partialRectangle;connectable=0;fillColor=none;top=0;left=0;bottom=0;right=0;align=center;spacingLeft=6;overflow=hidden;fontSize=20;strokeColor=default;" vertex="1" parent="q73aBfs1NUggTAyX3Rre-161">
          <mxGeometry x="150" width="190" height="30" as="geometry">
            <mxRectangle width="190" height="30" as="alternateBounds" />
          </mxGeometry>
        </mxCell>
        <mxCell id="q73aBfs1NUggTAyX3Rre-164" value="" style="shape=tableRow;horizontal=0;startSize=0;swimlaneHead=0;swimlaneBody=0;fillColor=none;collapsible=0;dropTarget=0;points=[[0,0.5],[1,0.5]];portConstraint=eastwest;top=0;left=0;right=0;bottom=0;fontSize=20;strokeColor=default;" vertex="1" parent="q73aBfs1NUggTAyX3Rre-154">
          <mxGeometry y="120" width="340" height="30" as="geometry" />
        </mxCell>
        <mxCell id="q73aBfs1NUggTAyX3Rre-165" value="" style="shape=partialRectangle;connectable=0;fillColor=none;top=0;left=0;bottom=0;right=0;editable=1;overflow=hidden;fontSize=20;strokeColor=default;" vertex="1" parent="q73aBfs1NUggTAyX3Rre-164">
          <mxGeometry width="150" height="30" as="geometry">
            <mxRectangle width="150" height="30" as="alternateBounds" />
          </mxGeometry>
        </mxCell>
        <mxCell id="q73aBfs1NUggTAyX3Rre-166" value="" style="shape=partialRectangle;connectable=0;fillColor=none;top=0;left=0;bottom=0;right=0;align=left;spacingLeft=6;overflow=hidden;fontSize=20;strokeColor=default;" vertex="1" parent="q73aBfs1NUggTAyX3Rre-164">
          <mxGeometry x="150" width="190" height="30" as="geometry">
            <mxRectangle width="190" height="30" as="alternateBounds" />
          </mxGeometry>
        </mxCell>
        <mxCell id="q73aBfs1NUggTAyX3Rre-167" value="" style="shape=table;startSize=30;container=1;collapsible=1;childLayout=tableLayout;fixedRows=1;rowLines=0;fontStyle=1;align=center;resizeLast=1;fontSize=20;strokeColor=default;" vertex="1" parent="1">
          <mxGeometry x="1345" y="-3680" width="540" height="150" as="geometry" />
        </mxCell>
        <mxCell id="q73aBfs1NUggTAyX3Rre-168" value="" style="shape=tableRow;horizontal=0;startSize=0;swimlaneHead=0;swimlaneBody=0;fillColor=none;collapsible=0;dropTarget=0;points=[[0,0.5],[1,0.5]];portConstraint=eastwest;top=0;left=0;right=0;bottom=1;fontSize=20;strokeColor=default;" vertex="1" parent="q73aBfs1NUggTAyX3Rre-167">
          <mxGeometry y="30" width="540" height="30" as="geometry" />
        </mxCell>
        <mxCell id="q73aBfs1NUggTAyX3Rre-169" value="date of appointment" style="shape=partialRectangle;connectable=0;fillColor=none;top=0;left=0;bottom=0;right=0;fontStyle=1;overflow=hidden;fontSize=20;strokeColor=default;" vertex="1" parent="q73aBfs1NUggTAyX3Rre-168">
          <mxGeometry width="280" height="30" as="geometry">
            <mxRectangle width="280" height="30" as="alternateBounds" />
          </mxGeometry>
        </mxCell>
        <mxCell id="q73aBfs1NUggTAyX3Rre-170" value="opening date" style="shape=partialRectangle;connectable=0;fillColor=none;top=0;left=0;bottom=0;right=0;align=center;spacingLeft=6;fontStyle=1;overflow=hidden;fontSize=20;strokeColor=default;" vertex="1" parent="q73aBfs1NUggTAyX3Rre-168">
          <mxGeometry x="280" width="260" height="30" as="geometry">
            <mxRectangle width="260" height="30" as="alternateBounds" />
          </mxGeometry>
        </mxCell>
        <mxCell id="q73aBfs1NUggTAyX3Rre-171" value="" style="shape=tableRow;horizontal=0;startSize=0;swimlaneHead=0;swimlaneBody=0;fillColor=none;collapsible=0;dropTarget=0;points=[[0,0.5],[1,0.5]];portConstraint=eastwest;top=0;left=0;right=0;bottom=0;fontSize=20;strokeColor=default;" vertex="1" parent="q73aBfs1NUggTAyX3Rre-167">
          <mxGeometry y="60" width="540" height="30" as="geometry" />
        </mxCell>
        <mxCell id="q73aBfs1NUggTAyX3Rre-172" value="20.11.22" style="shape=partialRectangle;connectable=0;fillColor=none;top=0;left=0;bottom=0;right=0;editable=1;overflow=hidden;fontSize=20;strokeColor=default;" vertex="1" parent="q73aBfs1NUggTAyX3Rre-171">
          <mxGeometry width="280" height="30" as="geometry">
            <mxRectangle width="280" height="30" as="alternateBounds" />
          </mxGeometry>
        </mxCell>
        <mxCell id="q73aBfs1NUggTAyX3Rre-173" value="25.11.22" style="shape=partialRectangle;connectable=0;fillColor=none;top=0;left=0;bottom=0;right=0;align=center;spacingLeft=6;overflow=hidden;fontSize=20;strokeColor=default;" vertex="1" parent="q73aBfs1NUggTAyX3Rre-171">
          <mxGeometry x="280" width="260" height="30" as="geometry">
            <mxRectangle width="260" height="30" as="alternateBounds" />
          </mxGeometry>
        </mxCell>
        <mxCell id="q73aBfs1NUggTAyX3Rre-174" value="" style="shape=tableRow;horizontal=0;startSize=0;swimlaneHead=0;swimlaneBody=0;fillColor=none;collapsible=0;dropTarget=0;points=[[0,0.5],[1,0.5]];portConstraint=eastwest;top=0;left=0;right=0;bottom=0;fontSize=20;strokeColor=default;" vertex="1" parent="q73aBfs1NUggTAyX3Rre-167">
          <mxGeometry y="90" width="540" height="30" as="geometry" />
        </mxCell>
        <mxCell id="q73aBfs1NUggTAyX3Rre-175" value="20.11.21" style="shape=partialRectangle;connectable=0;fillColor=none;top=0;left=0;bottom=0;right=0;editable=1;overflow=hidden;fontSize=20;strokeColor=default;" vertex="1" parent="q73aBfs1NUggTAyX3Rre-174">
          <mxGeometry width="280" height="30" as="geometry">
            <mxRectangle width="280" height="30" as="alternateBounds" />
          </mxGeometry>
        </mxCell>
        <mxCell id="q73aBfs1NUggTAyX3Rre-176" value="25.11.21" style="shape=partialRectangle;connectable=0;fillColor=none;top=0;left=0;bottom=0;right=0;align=center;spacingLeft=6;overflow=hidden;fontSize=20;strokeColor=default;" vertex="1" parent="q73aBfs1NUggTAyX3Rre-174">
          <mxGeometry x="280" width="260" height="30" as="geometry">
            <mxRectangle width="260" height="30" as="alternateBounds" />
          </mxGeometry>
        </mxCell>
        <mxCell id="q73aBfs1NUggTAyX3Rre-177" value="" style="shape=tableRow;horizontal=0;startSize=0;swimlaneHead=0;swimlaneBody=0;fillColor=none;collapsible=0;dropTarget=0;points=[[0,0.5],[1,0.5]];portConstraint=eastwest;top=0;left=0;right=0;bottom=0;fontSize=20;strokeColor=default;" vertex="1" parent="q73aBfs1NUggTAyX3Rre-167">
          <mxGeometry y="120" width="540" height="30" as="geometry" />
        </mxCell>
        <mxCell id="q73aBfs1NUggTAyX3Rre-178" value="" style="shape=partialRectangle;connectable=0;fillColor=none;top=0;left=0;bottom=0;right=0;editable=1;overflow=hidden;fontSize=20;strokeColor=default;" vertex="1" parent="q73aBfs1NUggTAyX3Rre-177">
          <mxGeometry width="280" height="30" as="geometry">
            <mxRectangle width="280" height="30" as="alternateBounds" />
          </mxGeometry>
        </mxCell>
        <mxCell id="q73aBfs1NUggTAyX3Rre-179" value="" style="shape=partialRectangle;connectable=0;fillColor=none;top=0;left=0;bottom=0;right=0;align=center;spacingLeft=6;overflow=hidden;fontSize=20;strokeColor=default;" vertex="1" parent="q73aBfs1NUggTAyX3Rre-177">
          <mxGeometry x="280" width="260" height="30" as="geometry">
            <mxRectangle width="260" height="30" as="alternateBounds" />
          </mxGeometry>
        </mxCell>
        <mxCell id="q73aBfs1NUggTAyX3Rre-180" value="" style="endArrow=classic;startArrow=classic;html=1;rounded=0;fontSize=20;" edge="1" parent="1" source="q73aBfs1NUggTAyX3Rre-112" target="q73aBfs1NUggTAyX3Rre-83">
          <mxGeometry width="50" height="50" relative="1" as="geometry">
            <mxPoint x="-877.3200000000002" y="-3151.6500000000005" as="sourcePoint" />
            <mxPoint x="-969.9679897567225" y="-3350" as="targetPoint" />
          </mxGeometry>
        </mxCell>
        <mxCell id="q73aBfs1NUggTAyX3Rre-181" value="" style="shape=table;startSize=30;container=1;collapsible=1;childLayout=tableLayout;fixedRows=1;rowLines=0;fontStyle=1;align=center;resizeLast=1;fontSize=20;strokeColor=default;" vertex="1" parent="1">
          <mxGeometry x="1885" y="-3680" width="340" height="150" as="geometry" />
        </mxCell>
        <mxCell id="q73aBfs1NUggTAyX3Rre-182" value="" style="shape=tableRow;horizontal=0;startSize=0;swimlaneHead=0;swimlaneBody=0;fillColor=none;collapsible=0;dropTarget=0;points=[[0,0.5],[1,0.5]];portConstraint=eastwest;top=0;left=0;right=0;bottom=1;fontSize=20;strokeColor=default;" vertex="1" parent="q73aBfs1NUggTAyX3Rre-181">
          <mxGeometry y="30" width="340" height="30" as="geometry" />
        </mxCell>
        <mxCell id="q73aBfs1NUggTAyX3Rre-183" value="date of passage" style="shape=partialRectangle;connectable=0;fillColor=none;top=0;left=0;bottom=0;right=0;fontStyle=1;overflow=hidden;fontSize=20;strokeColor=default;" vertex="1" parent="q73aBfs1NUggTAyX3Rre-182">
          <mxGeometry width="320" height="30" as="geometry">
            <mxRectangle width="320" height="30" as="alternateBounds" />
          </mxGeometry>
        </mxCell>
        <mxCell id="q73aBfs1NUggTAyX3Rre-184" value="" style="shape=partialRectangle;connectable=0;fillColor=none;top=0;left=0;bottom=0;right=0;align=left;spacingLeft=6;fontStyle=5;overflow=hidden;fontSize=20;strokeColor=default;" vertex="1" parent="q73aBfs1NUggTAyX3Rre-182">
          <mxGeometry x="320" width="20" height="30" as="geometry">
            <mxRectangle width="20" height="30" as="alternateBounds" />
          </mxGeometry>
        </mxCell>
        <mxCell id="q73aBfs1NUggTAyX3Rre-185" value="" style="shape=tableRow;horizontal=0;startSize=0;swimlaneHead=0;swimlaneBody=0;fillColor=none;collapsible=0;dropTarget=0;points=[[0,0.5],[1,0.5]];portConstraint=eastwest;top=0;left=0;right=0;bottom=0;fontSize=20;strokeColor=default;" vertex="1" parent="q73aBfs1NUggTAyX3Rre-181">
          <mxGeometry y="60" width="340" height="30" as="geometry" />
        </mxCell>
        <mxCell id="q73aBfs1NUggTAyX3Rre-186" value="25.11.22" style="shape=partialRectangle;connectable=0;fillColor=none;top=0;left=0;bottom=0;right=0;editable=1;overflow=hidden;fontSize=20;strokeColor=default;" vertex="1" parent="q73aBfs1NUggTAyX3Rre-185">
          <mxGeometry width="320" height="30" as="geometry">
            <mxRectangle width="320" height="30" as="alternateBounds" />
          </mxGeometry>
        </mxCell>
        <mxCell id="q73aBfs1NUggTAyX3Rre-187" value="" style="shape=partialRectangle;connectable=0;fillColor=none;top=0;left=0;bottom=0;right=0;align=left;spacingLeft=6;overflow=hidden;fontSize=20;strokeColor=default;" vertex="1" parent="q73aBfs1NUggTAyX3Rre-185">
          <mxGeometry x="320" width="20" height="30" as="geometry">
            <mxRectangle width="20" height="30" as="alternateBounds" />
          </mxGeometry>
        </mxCell>
        <mxCell id="q73aBfs1NUggTAyX3Rre-188" value="" style="shape=tableRow;horizontal=0;startSize=0;swimlaneHead=0;swimlaneBody=0;fillColor=none;collapsible=0;dropTarget=0;points=[[0,0.5],[1,0.5]];portConstraint=eastwest;top=0;left=0;right=0;bottom=0;fontSize=20;strokeColor=default;" vertex="1" parent="q73aBfs1NUggTAyX3Rre-181">
          <mxGeometry y="90" width="340" height="20" as="geometry" />
        </mxCell>
        <mxCell id="q73aBfs1NUggTAyX3Rre-189" value="23.11.22" style="shape=partialRectangle;connectable=0;fillColor=none;top=0;left=0;bottom=0;right=0;editable=1;overflow=hidden;fontSize=20;strokeColor=default;" vertex="1" parent="q73aBfs1NUggTAyX3Rre-188">
          <mxGeometry width="320" height="20" as="geometry">
            <mxRectangle width="320" height="20" as="alternateBounds" />
          </mxGeometry>
        </mxCell>
        <mxCell id="q73aBfs1NUggTAyX3Rre-190" value="" style="shape=partialRectangle;connectable=0;fillColor=none;top=0;left=0;bottom=0;right=0;align=left;spacingLeft=6;overflow=hidden;fontSize=20;strokeColor=default;" vertex="1" parent="q73aBfs1NUggTAyX3Rre-188">
          <mxGeometry x="320" width="20" height="20" as="geometry">
            <mxRectangle width="20" height="20" as="alternateBounds" />
          </mxGeometry>
        </mxCell>
        <mxCell id="q73aBfs1NUggTAyX3Rre-191" value="" style="shape=tableRow;horizontal=0;startSize=0;swimlaneHead=0;swimlaneBody=0;fillColor=none;collapsible=0;dropTarget=0;points=[[0,0.5],[1,0.5]];portConstraint=eastwest;top=0;left=0;right=0;bottom=0;fontSize=20;strokeColor=default;" vertex="1" parent="q73aBfs1NUggTAyX3Rre-181">
          <mxGeometry y="110" width="340" height="40" as="geometry" />
        </mxCell>
        <mxCell id="q73aBfs1NUggTAyX3Rre-192" value="" style="shape=partialRectangle;connectable=0;fillColor=none;top=0;left=0;bottom=0;right=0;editable=1;overflow=hidden;fontSize=20;strokeColor=default;" vertex="1" parent="q73aBfs1NUggTAyX3Rre-191">
          <mxGeometry width="320" height="40" as="geometry">
            <mxRectangle width="320" height="40" as="alternateBounds" />
          </mxGeometry>
        </mxCell>
        <mxCell id="q73aBfs1NUggTAyX3Rre-193" value="" style="shape=partialRectangle;connectable=0;fillColor=none;top=0;left=0;bottom=0;right=0;align=left;spacingLeft=6;overflow=hidden;fontSize=20;strokeColor=default;" vertex="1" parent="q73aBfs1NUggTAyX3Rre-191">
          <mxGeometry x="320" width="20" height="40" as="geometry">
            <mxRectangle width="20" height="40" as="alternateBounds" />
          </mxGeometry>
        </mxCell>
      </root>
    </mxGraphModel>
  </diagram>
</mxfile>
